<svg class="animated" id="freepik_stories-growth-analytics" xmlns="http://www.w3.org/2000/svg" viewBox="0 0 500 500" version="1.1" xmlns:xlink="http://www.w3.org/1999/xlink" xmlns:svgjs="http://svgjs.com/svgjs"><style>svg#freepik_stories-growth-analytics:not(.animated) .animable {opacity: 0;}
svg#freepik_stories-growth-analytics.animated #freepik--Chart--inject-2 {animation: 5s infinite ease-in-out chartRise;animation-delay: 0s;}
svg#freepik_stories-growth-analytics.animated #freepik--character-1--inject-2 {animation: 5s infinite ease-in-out nodding;animation-delay: 0.2s;}
svg#freepik_stories-growth-analytics.animated #freepik--character-2--inject-2 {animation: 4.5s infinite ease-in-out pointing;animation-delay: 0.5s;}
svg#freepik_stories-growth-analytics.animated #freepik--Plant--inject-2 {animation: 6s infinite ease-in-out plantSway;animation-delay: 0.8s;}
            @keyframes chartRise {
                0%, 100% { transform: translateY(0) scale(1); }
                30% { transform: translateY(-8px) scale(1.02); }
                60% { transform: translateY(-5px) scale(1.01); }
            }
            @keyframes nodding {
                0%, 100% { transform: translateY(0) rotate(0deg); }
                20% { transform: translateY(-2px) rotate(0.5deg); }
                40% { transform: translateY(0) rotate(0deg); }
                60% { transform: translateY(-1.5px) rotate(-0.3deg); }
                80% { transform: translateY(0) rotate(0deg); }
            }
            @keyframes pointing {
                0%, 100% { transform: rotate(0deg) translateX(0) translateY(0); }
                25% { transform: rotate(0.8deg) translateX(2px) translateY(-1px); }
                50% { transform: rotate(0deg) translateX(0) translateY(0); }
                75% { transform: rotate(-0.5deg) translateX(-1px) translateY(-0.5px); }
            }
            @keyframes plantSway {
                0%, 100% { transform: rotate(0deg) translateX(0) scaleY(1); }
                20% { transform: rotate(0.8deg) translateX(1.5px) scaleY(1.005); }
                50% { transform: rotate(-0.3deg) translateX(-0.5px) scaleY(0.998); }
                80% { transform: rotate(0.5deg) translateX(0.8px) scaleY(1.002); }
            }
        </style><g id="freepik--background-complete--inject-2" class="animable" style="transform-origin: 296.12px 260.565px;"><rect x="352.47" y="52.79" width="103.82" height="92.88" style="fill: rgb(250, 250, 250); transform-origin: 404.38px 99.23px;" id="eln8gtuzg130b" class="animable"></rect><path d="M456.28,145.67s0-.6,0-1.72,0-2.81,0-5c0-4.36,0-10.74-.06-18.85,0-16.23-.07-39.42-.12-67.33l.23.24-103.8,0h0l.27-.28c0,33.79,0,65.59,0,92.88l-.24-.25,75.08.13,21.18.06,5.61,0,1.44,0h0l-1.42,0-5.56,0-21.12.06-75.24.12h-.25v-.24c0-27.29,0-59.09,0-92.88v-.28h.29l103.8,0h.24v.24c0,28-.1,51.21-.12,67.47,0,8.1,0,14.46-.07,18.8,0,2.16,0,3.81,0,4.94S456.28,145.67,456.28,145.67Z" style="fill: rgb(224, 224, 224); transform-origin: 404.445px 99.03px;" id="el6285cgyebbo" class="animable"></path><path d="M392.27,69.29c0,.16-5.46.28-12.2.28s-12.21-.12-12.21-.28,5.47-.27,12.21-.27S392.27,69.14,392.27,69.29Z" style="fill: rgb(224, 224, 224); transform-origin: 380.065px 69.295px;" id="el4evjydnix88" class="animable"></path><path d="M436.26,76.27c0,.15-15,.27-33.53.27s-33.52-.12-33.52-.27,15-.28,33.52-.28S436.26,76.11,436.26,76.27Z" style="fill: rgb(224, 224, 224); transform-origin: 402.735px 76.265px;" id="elkvtx3k2ovpp" class="animable"></path><rect x="368.04" y="88.08" width="4.37" height="4.37" style="fill: rgb(224, 224, 224); transform-origin: 370.225px 90.265px;" id="elfhl41owocaa" class="animable"></rect><rect x="378.81" y="88.08" width="4.37" height="4.37" style="fill: rgb(224, 224, 224); transform-origin: 380.995px 90.265px;" id="el2ydonoh0mw8" class="animable"></rect><rect x="389.77" y="87.88" width="4.37" height="4.37" style="fill: rgb(224, 224, 224); transform-origin: 391.955px 90.065px;" id="eljnf2fkuyk9" class="animable"></rect><rect x="400.34" y="88.08" width="4.37" height="4.37" style="fill: rgb(224, 224, 224); transform-origin: 402.525px 90.265px;" id="eleuofjua4qr9" class="animable"></rect><rect x="411.11" y="88.08" width="4.37" height="4.37" style="fill: rgb(224, 224, 224); transform-origin: 413.295px 90.265px;" id="elbve5mmhlzli" class="animable"></rect><rect x="421.87" y="88.08" width="4.37" height="4.37" style="fill: rgb(224, 224, 224); transform-origin: 424.055px 90.265px;" id="el7rj8u6k7i34" class="animable"></rect><rect x="432.64" y="88.08" width="4.37" height="4.37" style="fill: rgb(235, 235, 235); transform-origin: 434.825px 90.265px;" id="elpz7my2oqgb" class="animable"></rect><rect x="368.04" y="97.38" width="4.37" height="4.37" style="fill: rgb(235, 235, 235); transform-origin: 370.225px 99.565px;" id="el052vbnw8l5fi" class="animable"></rect><rect x="378.81" y="97.38" width="4.37" height="4.37" style="fill: rgb(224, 224, 224); transform-origin: 380.995px 99.565px;" id="elikroincaxpn" class="animable"></rect><rect x="389.58" y="97.38" width="4.37" height="4.37" style="fill: rgb(235, 235, 235); transform-origin: 391.765px 99.565px;" id="elowv7c86dwsf" class="animable"></rect><rect x="400.34" y="97.38" width="4.37" height="4.37" style="fill: rgb(224, 224, 224); transform-origin: 402.525px 99.565px;" id="eljkbd1m0dyfh" class="animable"></rect><rect x="411.11" y="97.38" width="4.37" height="4.37" style="fill: rgb(224, 224, 224); transform-origin: 413.295px 99.565px;" id="eldsc3869c7q" class="animable"></rect><rect x="422.07" y="97.18" width="4.37" height="4.37" style="fill: rgb(224, 224, 224); transform-origin: 424.255px 99.365px;" id="el91pktwn1el6" class="animable"></rect><rect x="432.64" y="97.38" width="4.37" height="4.37" style="fill: rgb(224, 224, 224); transform-origin: 434.825px 99.565px;" id="el1mgdic6jens" class="animable"></rect><rect x="368.04" y="106.68" width="4.37" height="4.37" style="fill: rgb(224, 224, 224); transform-origin: 370.225px 108.865px;" id="elp05w03m9qy" class="animable"></rect><rect x="379.01" y="106.48" width="4.37" height="4.37" style="fill: rgb(224, 224, 224); transform-origin: 381.195px 108.665px;" id="elyzzrmqyawnb" class="animable"></rect><rect x="389.58" y="106.68" width="4.37" height="4.37" style="fill: rgb(224, 224, 224); transform-origin: 391.765px 108.865px;" id="elm5t0iojj6h" class="animable"></rect><rect x="400.34" y="106.68" width="4.37" height="4.37" style="fill: rgb(235, 235, 235); transform-origin: 402.525px 108.865px;" id="el224vaaz3q1m" class="animable"></rect><rect x="411.11" y="106.68" width="4.37" height="4.37" style="fill: rgb(224, 224, 224); transform-origin: 413.295px 108.865px;" id="el72g1dmkpwca" class="animable"></rect><rect x="421.87" y="106.68" width="4.37" height="4.37" style="fill: rgb(224, 224, 224); transform-origin: 424.055px 108.865px;" id="elad7fov2t8rk" class="animable"></rect><rect x="432.64" y="106.68" width="4.37" height="4.37" style="fill: rgb(224, 224, 224); transform-origin: 434.825px 108.865px;" id="elnce5bca2h6j" class="animable"></rect><rect x="368.04" y="115.97" width="4.37" height="4.37" style="fill: rgb(224, 224, 224); transform-origin: 370.225px 118.155px;" id="el6fughh2ova3" class="animable"></rect><rect x="378.81" y="115.97" width="4.37" height="4.37" style="fill: rgb(224, 224, 224); transform-origin: 380.995px 118.155px;" id="elgpu0gab0k6r" class="animable"></rect><rect x="389.58" y="115.97" width="4.37" height="4.37" style="fill: rgb(224, 224, 224); transform-origin: 391.765px 118.155px;" id="el4jde8y9ll4k" class="animable"></rect><rect x="400.54" y="115.78" width="4.37" height="4.37" style="fill: rgb(224, 224, 224); transform-origin: 402.725px 117.965px;" id="elnqxxhsdux1p" class="animable"></rect><rect x="411.11" y="115.97" width="4.37" height="4.37" style="fill: rgb(224, 224, 224); transform-origin: 413.295px 118.155px;" id="eljg21alhoj8q" class="animable"></rect><rect x="421.87" y="115.97" width="4.37" height="4.37" style="fill: rgb(235, 235, 235); transform-origin: 424.055px 118.155px;" id="elg0n36igtsbi" class="animable"></rect><rect x="432.64" y="115.97" width="4.37" height="4.37" style="fill: rgb(224, 224, 224); transform-origin: 434.825px 118.155px;" id="eljfu31j9j0rm" class="animable"></rect><rect x="368.04" y="125.27" width="4.37" height="4.37" style="fill: rgb(224, 224, 224); transform-origin: 370.225px 127.455px;" id="elh7obvhke8sb" class="animable"></rect><rect x="378.81" y="125.27" width="4.37" height="4.37" style="fill: rgb(235, 235, 235); transform-origin: 380.995px 127.455px;" id="elqe6m55hdqy" class="animable"></rect><rect x="389.58" y="125.27" width="4.37" height="4.37" style="fill: rgb(224, 224, 224); transform-origin: 391.765px 127.455px;" id="eljbvv85vtoe" class="animable"></rect><rect x="400.34" y="125.27" width="4.37" height="4.37" style="fill: rgb(224, 224, 224); transform-origin: 402.525px 127.455px;" id="elaalvf5nm8iv" class="animable"></rect><rect x="411.11" y="125.27" width="4.37" height="4.37" style="fill: rgb(224, 224, 224); transform-origin: 413.295px 127.455px;" id="ellbshvdgdb7a" class="animable"></rect><rect x="422.07" y="125.07" width="4.37" height="4.37" style="fill: rgb(224, 224, 224); transform-origin: 424.255px 127.255px;" id="elksfsspsp2vs" class="animable"></rect><rect x="432.64" y="125.27" width="4.37" height="4.37" style="fill: rgb(224, 224, 224); transform-origin: 434.825px 127.455px;" id="elekx7eb31t4j" class="animable"></rect><rect x="110.83" y="329.46" width="184.69" height="85.17" style="fill: rgb(245, 245, 245); transform-origin: 203.175px 372.045px;" id="el1zeyqhn2hpe" class="animable"></rect><path d="M291.12,410.62H115.05V333.94H291.12ZM116.2,409.47H290V335.09H116.2Z" style="fill: rgb(224, 224, 224); transform-origin: 203.085px 372.28px;" id="elbuzl9zmgdtg" class="animable"></path><rect x="295.51" y="329.46" width="45.12" height="85.17" style="fill: rgb(224, 224, 224); transform-origin: 318.07px 372.045px;" id="ellykjo0elk2f" class="animable"></rect><path d="M115.63,357.67H290.54a.23.23,0,0,0,0-.46H115.63a.23.23,0,0,0,0,.46Z" style="fill: rgb(224, 224, 224); transform-origin: 203.085px 357.44px;" id="el60b1jo90kaw" class="animable"></path><path d="M203.66,357.44a194,194,0,0,0,.06-23.13.24.24,0,0,0-.48,0,194,194,0,0,0,.06,23.13.18.18,0,0,0,.36,0Z" style="fill: rgb(224, 224, 224); transform-origin: 203.48px 345.845px;" id="el0kojphxjn8o" class="animable"></path><path d="M250.74,345.87a2.39,2.39,0,1,1-2.39-2.38A2.39,2.39,0,0,1,250.74,345.87Z" style="fill: rgb(224, 224, 224); transform-origin: 248.35px 345.88px;" id="els7qicdky5x" class="animable"></path><path d="M158.94,345.87a2.38,2.38,0,1,1-2.38-2.38A2.39,2.39,0,0,1,158.94,345.87Z" style="fill: rgb(224, 224, 224); transform-origin: 156.56px 345.87px;" id="elqkfd1zyzpki" class="animable"></path><path d="M205.47,372.28a2.39,2.39,0,1,1-2.39-2.38A2.39,2.39,0,0,1,205.47,372.28Z" style="fill: rgb(224, 224, 224); transform-origin: 203.08px 372.29px;" id="elzzw5vtw32vj" class="animable"></path><polygon points="132.91 414.64 123.4 468.11 128.75 468.11 146.28 414.64 132.91 414.64" style="fill: rgb(224, 224, 224); transform-origin: 134.84px 441.375px;" id="elhppblo22gwh" class="animable"></polygon><polygon points="282.44 414.64 290.4 468.2 285.05 468.2 269.07 414.64 282.44 414.64" style="fill: rgb(224, 224, 224); transform-origin: 279.735px 441.42px;" id="el6xkjvcsdm8u" class="animable"></polygon><polygon points="318.15 414.64 327.16 468.2 321.81 468.2 304.78 414.64 318.15 414.64" style="fill: rgb(224, 224, 224); transform-origin: 315.97px 441.42px;" id="el85303v86ikt" class="animable"></polygon><path d="M205.31,396.39a2.39,2.39,0,1,1-2.39-2.38A2.39,2.39,0,0,1,205.31,396.39Z" style="fill: rgb(224, 224, 224); transform-origin: 202.92px 396.4px;" id="elgqjncm1vnwp" class="animable"></path><path d="M115.63,384.05H290.54a.23.23,0,0,0,0-.46H115.63a.23.23,0,0,0,0,.46Z" style="fill: rgb(224, 224, 224); transform-origin: 203.085px 383.82px;" id="elvru7iehytcr" class="animable"></path><g id="elzgpk38s22gk"><rect x="206.14" y="267.1" width="11.37" height="55.84" style="fill: rgb(224, 224, 224); transform-origin: 211.825px 295.02px; transform: rotate(89.7deg);" class="animable"></rect></g><g id="elbw63mub63mv"><rect x="206.48" y="289.44" width="17.66" height="62.24" style="fill: rgb(245, 245, 245); transform-origin: 215.31px 320.56px; transform: rotate(89.7deg);" class="animable"></rect></g><path d="M234.49,329.1c-.17,0-.3-4-.3-8.83s.13-8.83.3-8.83.3,3.95.3,8.83S234.66,329.1,234.49,329.1Z" style="fill: rgb(224, 224, 224); transform-origin: 234.49px 320.27px;" id="elu1lkb8sqvi" class="animable"></path><path d="M237.1,329.1a66.33,66.33,0,0,1-.3-8.83,66.33,66.33,0,0,1,.3-8.83c.17,0,.31,3.95.31,8.83S237.27,329.1,237.1,329.1Z" style="fill: rgb(224, 224, 224); transform-origin: 237.087px 320.27px;" id="el6inxtb9cx1m" class="animable"></path><path d="M193.61,329.1c-.17,0-.31-4-.31-8.83s.14-8.83.31-8.83a66.33,66.33,0,0,1,.3,8.83A66.33,66.33,0,0,1,193.61,329.1Z" style="fill: rgb(224, 224, 224); transform-origin: 193.623px 320.27px;" id="eldkmnnf6irhl" class="animable"></path><path d="M196.22,329.1c-.17,0-.3-4-.3-8.83s.13-8.83.3-8.83.3,3.95.3,8.83S196.39,329.1,196.22,329.1Z" style="fill: rgb(224, 224, 224); transform-origin: 196.22px 320.27px;" id="el2ch11xi7vh8" class="animable"></path><path d="M201.93,320.56c0-.17,6.27-.31,14-.31s14,.14,14,.31-6.27.3-14,.3S201.93,320.72,201.93,320.56Z" style="fill: rgb(224, 224, 224); transform-origin: 215.93px 320.555px;" id="el0ykmld74j2ck" class="animable"></path><g id="elmvrj6gjz92b"><rect x="225.74" y="267.58" width="11.37" height="76.8" style="fill: rgb(235, 235, 235); transform-origin: 231.425px 305.98px; transform: rotate(89.7deg);" class="animable"></rect></g><path d="M258.86,310.05a3.68,3.68,0,1,1,3.62-3.68A3.65,3.65,0,0,1,258.86,310.05Z" style="fill: rgb(224, 224, 224); transform-origin: 258.8px 306.37px;" id="el1cer2t92noj" class="animable"></path><g id="elz2vm3hkhdfn"><rect x="222.03" y="280.67" width="2.27" height="51.41" style="fill: rgb(224, 224, 224); transform-origin: 223.165px 306.375px; transform: rotate(90deg);" class="animable"></rect></g><path d="M443.09,415l-1.43,26.28a1.77,1.77,0,0,1-1.76,1.68l-47.29.35a1.79,1.79,0,0,1-1.79-1.77L390.67,421a1.77,1.77,0,0,1,1.77-1.79l29.09,0a1.73,1.73,0,0,0,1.25-.52l5-5a1.77,1.77,0,0,1,1.24-.52l12.26-.09A1.78,1.78,0,0,1,443.09,415Z" style="fill: rgb(12, 37, 80); transform-origin: 416.883px 428.195px;" id="el42kltcu0b5" class="animable"></path><g id="els2m5rujzh9g"><g style="opacity: 0.3; transform-origin: 416.883px 428.195px;" class="animable"><path d="M443.09,415l-1.43,26.28a1.77,1.77,0,0,1-1.76,1.68l-47.29.35a1.79,1.79,0,0,1-1.79-1.77L390.67,421a1.77,1.77,0,0,1,1.77-1.79l29.09,0a1.73,1.73,0,0,0,1.25-.52l5-5a1.77,1.77,0,0,1,1.24-.52l12.26-.09A1.78,1.78,0,0,1,443.09,415Z" id="elkzp2ts3ssn" class="animable" style="transform-origin: 416.883px 428.195px;"></path></g></g><g id="el78j2jgkbyub"><rect x="390.75" y="415.97" width="51.67" height="30.88" style="fill: rgb(245, 245, 245); transform-origin: 416.585px 431.41px; transform: rotate(179.58deg);" class="animable"></rect></g><path d="M446.44,418.52l-3.71,32.23a1.15,1.15,0,0,1-1.13,1l-50.36.37a1.14,1.14,0,0,1-1.14-1.05l-2.77-32.18a1.14,1.14,0,0,1,1.13-1.24l56.84-.41A1.14,1.14,0,0,1,446.44,418.52Z" style="fill: rgb(224, 224, 224); transform-origin: 416.887px 434.68px;" id="elb8ky4hyqn0l" class="animable"></path><path d="M457,410l-1.43,26.28a1.77,1.77,0,0,1-1.76,1.68l-47.29.35a1.78,1.78,0,0,1-1.79-1.76l-.15-20.46a1.78,1.78,0,0,1,1.78-1.79l29.08,0a1.77,1.77,0,0,0,1.26-.52l5-5a1.77,1.77,0,0,1,1.25-.52l12.26-.09A1.77,1.77,0,0,1,457,410Z" style="fill: rgb(235, 235, 235); transform-origin: 430.79px 423.24px;" id="eldmllkjg1vv" class="animable"></path><g id="elf4yumf8mc4t"><rect x="404.66" y="411.01" width="51.68" height="30.88" style="fill: rgb(245, 245, 245); transform-origin: 430.5px 426.45px; transform: rotate(179.58deg);" class="animable"></rect></g><path d="M460.35,413.56l-3.71,32.23a1.13,1.13,0,0,1-1.12,1l-50.36.37a1.14,1.14,0,0,1-1.15-1l-2.77-32.19a1.13,1.13,0,0,1,1.13-1.23l56.84-.42A1.13,1.13,0,0,1,460.35,413.56Z" style="fill: rgb(235, 235, 235); transform-origin: 430.796px 429.74px;" id="eltjy4xgqadwl" class="animable"></path><path d="M472.68,416.14l-1.43,26.29a1.77,1.77,0,0,1-1.76,1.67l-47.29.35a1.78,1.78,0,0,1-1.79-1.76l-.15-20.46a1.79,1.79,0,0,1,1.78-1.79l29.08,0a1.81,1.81,0,0,0,1.26-.52l5-5a1.81,1.81,0,0,1,1.25-.52l12.26-.09A1.77,1.77,0,0,1,472.68,416.14Z" style="fill: rgb(245, 245, 245); transform-origin: 446.47px 429.38px;" id="elmt4vpf12ktk" class="animable"></path><g id="elg1lntnj620g"><rect x="420.34" y="417.16" width="51.67" height="30.88" style="fill: rgb(250, 250, 250); transform-origin: 446.175px 432.6px; transform: rotate(179.58deg);" class="animable"></rect></g><path d="M476,419.71l-3.71,32.23a1.13,1.13,0,0,1-1.12,1l-50.36.37a1.14,1.14,0,0,1-1.15-1l-2.77-32.18a1.15,1.15,0,0,1,1.13-1.24l56.84-.42A1.14,1.14,0,0,1,476,419.71Z" style="fill: rgb(245, 245, 245); transform-origin: 446.445px 435.89px;" id="elfxlkx4yh4k" class="animable"></path><path d="M416.92,424.1v44.7h64.49V424.1Zm21.05,8a3.3,3.3,0,0,1,3.3-3.3h15.79a3.3,3.3,0,1,1,0,6.6H441.27A3.3,3.3,0,0,1,438,432.14Z" style="fill: rgb(235, 235, 235); transform-origin: 449.165px 446.45px;" id="elesaq6x48d9q" class="animable"></path><path d="M382.15,424.1v44.7h34.77V424.1Z" style="fill: rgb(224, 224, 224); transform-origin: 399.535px 446.45px;" id="el9eby4o9qntr" class="animable"></path></g><g id="freepik--Plant--inject-2" class="animable" style="transform-origin: 86.78px 368.855px;"><path d="M55.59,377.17a32.47,32.47,0,0,0-13.94-4.8c-2.28-.24-4.76-.17-6.59,1.21a1.35,1.35,0,0,0-.68,1.2,1.46,1.46,0,0,0,.64.83,20,20,0,0,0,20.57,1.56" style="fill: rgb(12, 37, 80); transform-origin: 44.9849px 375.784px;" id="elo4w1wx71l28" class="animable"></path><path d="M55.23,376.77a67.85,67.85,0,0,1-9-7.92,22.73,22.73,0,0,1-5.64-10.44,4.18,4.18,0,0,1,.44-3.49c7.18,5.6,12.81,12.85,14.2,21.85" style="fill: rgb(12, 37, 80); transform-origin: 47.8111px 365.845px;" id="el6lwowq4iou2" class="animable"></path><path d="M55.52,377.11a32.38,32.38,0,0,1,.16-11.82,16,16,0,0,1,6.3-9.75c1.24,2.9.71,6.24-.17,9.27A45.22,45.22,0,0,1,55.57,378" style="fill: rgb(12, 37, 80); transform-origin: 58.882px 366.77px;" id="elqh4qvkl6gff" class="animable"></path><path d="M62.55,389.72c-4.27.52-8,2.77-11.18,5.65a21.15,21.15,0,0,0-6.39,11c4.19-.26,7.74-3.21,10.32-6.52s4.36-6.95,7.19-10.05" style="fill: rgb(12, 37, 80); transform-origin: 53.765px 398.045px;" id="elnldunkcq5rr" class="animable"></path><path d="M64.08,391.73a27.56,27.56,0,0,1,3.18-26.08c2.43,8.66,1.54,18.43-3.18,26.08" style="fill: rgb(12, 37, 80); transform-origin: 65.3648px 378.69px;" id="elx0o23z45tz" class="animable"></path><path d="M73.37,402.8a19.94,19.94,0,0,0-19.06,11,1.49,1.49,0,0,0-.13,1.5,1.45,1.45,0,0,0,1.27.37c3.75-.24,7.08-2.5,9.83-5.08s5.14-5.55,8.18-7.77" style="fill: rgb(12, 37, 80); transform-origin: 63.748px 409.229px;" id="elwl6bhqkolb" class="animable"></path><path d="M73.08,402.2a35.48,35.48,0,0,1-.36-19.83c.7-2.56,1.87-5.24,4.23-6.44a.85.85,0,0,1,.65-.11.83.83,0,0,1,.41.47A12,12,0,0,1,79,382a36.3,36.3,0,0,1-.89,5.76c-.75,3.52-1.14,7.3-3.07,10.34a21.6,21.6,0,0,0-1.23,2.27c-.37.77-.37,1-.7,1.66" style="fill: rgb(12, 37, 80); transform-origin: 75.2558px 388.999px;" id="el6ecq1udjrb7" class="animable"></path><path d="M97.68,405.86c-1.82-6.93.11-15.34,4.48-21,.32-.42.75-.87,1.27-.82.81.08,1,1.15,1,2a38,38,0,0,1-6.73,19.88" style="fill: rgb(12, 37, 80); transform-origin: 100.714px 394.978px;" id="eld1pz1c8ooje" class="animable"></path><path d="M99.9,407.38a30.59,30.59,0,0,0,25.09-5.1,20.26,20.26,0,0,0-13.58-1.67c-4.54,1-8.69,3.07-11.51,6.77" style="fill: rgb(12, 37, 80); transform-origin: 112.445px 404.153px;" id="elb59cggzpq0q" class="animable"></path><path d="M101.77,402.76c4.72-7.69,13.76-12.71,22.77-13.17-1,3.67-4.05,6.52-7.45,8.24s-7.19,2.47-10.93,3.2c-1.45.28-3.45.59-4.39,1.73" style="fill: rgb(12, 37, 80); transform-origin: 113.155px 396.175px;" id="elwbtmkri1s1" class="animable"></path><path d="M98.15,380.36A65.94,65.94,0,0,0,101.06,367a22.21,22.21,0,0,0-2.66-13.19c-4.4,8.53-4.85,18.49-.38,27" style="fill: rgb(12, 37, 80); transform-origin: 98.0338px 367.31px;" id="elh85233sjsoi" class="animable"></path><path d="M113,372.86c5.15-9.36,15.66-16.85,26.3-17.9-4.1,10.22-15.29,18.12-26.3,17.9" style="fill: rgb(12, 37, 80); transform-origin: 126.15px 363.912px;" id="elds39l3vfxy5" class="animable"></path><path d="M109.74,374.7c7.69,1.17,14.24,6.08,21.42,9.05a9.52,9.52,0,0,0,4.84.93,4.22,4.22,0,0,0,3.65-2.94,4.27,4.27,0,0,0-1.27-3.77,10.54,10.54,0,0,0-3.52-2.13c-7.83-3.26-16.21-3.34-24.46-1.36" style="fill: rgb(12, 37, 80); transform-origin: 124.722px 378.931px;" id="elrqwjy7n1x4" class="animable"></path><path d="M105.3,380.09c1.74.5,2.33,1.4,3.71,2.57A40,40,0,0,0,125.25,391c.62.16,1.43.22,1.74-.34s-.07-1.08-.42-1.52a22.45,22.45,0,0,0-9.81-6.66c-3.74-1.39-7-3.08-11.46-2.71" style="fill: rgb(12, 37, 80); transform-origin: 116.202px 385.415px;" id="elg1muctvzopv" class="animable"></path><path d="M100.28,347.53a30.75,30.75,0,0,0,23.56,8,1.6,1.6,0,0,0,1.07-.39c.6-.64-.12-1.64-.81-2.18-6.92-5.4-15.32-7.64-23.82-5.45" style="fill: rgb(12, 37, 80); transform-origin: 112.707px 351.165px;" id="el1v3wl1qa0ir" class="animable"></path><path d="M106.23,345.35a32.85,32.85,0,0,1,29.4-4.85,23.34,23.34,0,0,1-14,6.15,44.16,44.16,0,0,1-15.39-1.3" style="fill: rgb(12, 37, 80); transform-origin: 120.93px 342.898px;" id="elaop9d84txia" class="animable"></path><path d="M103.86,330.39c-.68-6.91-.24-12.37-.72-19.32,0-.56-.15-1.22-.67-1.42-.73-.28-1.33.61-1.57,1.34a22.16,22.16,0,0,0,2.95,19.25" style="fill: rgb(12, 37, 80); transform-origin: 101.876px 319.994px;" id="elycwv5weeuj" class="animable"></path><path d="M103.36,331.15A40.48,40.48,0,0,0,114.82,320c2.26-3.09,4.17-6.8,3.65-10.6a11,11,0,0,0-8.26,4.1A23.13,23.13,0,0,0,106,322c-.92,3-1.56,6.16-2.64,9.15" style="fill: rgb(12, 37, 80); transform-origin: 110.958px 320.275px;" id="elq24q9enl92c" class="animable"></path><path d="M114.62,328a92.58,92.58,0,0,0,28.19-16.62c-3.37-1.36-7.22-.55-10.59.81A33.4,33.4,0,0,0,114.47,328" style="fill: rgb(12, 37, 80); transform-origin: 128.64px 319.34px;" id="el975hr31rmpq" class="animable"></path><path d="M106.53,334.94c5.2.57,10.49.94,15.65.07s9.87-2.86,14.61-4.85a1.73,1.73,0,0,0,1-.76,1.15,1.15,0,0,0-.36-1.25,3,3,0,0,0-1.24-.58c-5.16-1.44-10.72-.77-15.8.94a73.26,73.26,0,0,0-13.86,6.43" style="fill: rgb(12, 37, 80); transform-origin: 122.189px 331.155px;" id="elz3mr6cjiras" class="animable"></path><path d="M76.81,347.77c-3.55-7.17-3.32-15.53-.25-22.92,2.16,3.29,2.42,7.48,2,11.39s-1.59,7.95-1.66,11.88" style="fill: rgb(12, 37, 80); transform-origin: 76.4655px 336.485px;" id="elpt59rd6o0c" class="animable"></path><path d="M62.63,340.61a32,32,0,0,0-23.75,10.12,22.29,22.29,0,0,0,13-2.41A66.24,66.24,0,0,0,63,340.86" style="fill: rgb(12, 37, 80); transform-origin: 50.94px 345.746px;" id="el74ztr3f7lii" class="animable"></path><path d="M53.1,337.42c-4.34-.35-8.51-.89-12.68.39a15.22,15.22,0,0,0-9.67,8.2,22.94,22.94,0,0,0,11.89-2.25,68.09,68.09,0,0,0,10.46-6.34" style="fill: rgb(12, 37, 80); transform-origin: 41.925px 341.543px;" id="elchrxz5z2tft" class="animable"></path><path d="M67.21,337.57c-3.9-2.56-7.9-5.16-12.45-6.22s-9.8-.28-13,3.15c3.68,2.16,8.14,2.41,12.4,2.41s9.49-.05,13.51,1.37" style="fill: rgb(12, 37, 80); transform-origin: 54.715px 334.595px;" id="ell7w0401n8" class="animable"></path><path d="M67.24,337.77c-6.67-6.54-9.2-18.31-6.52-27.26a41.52,41.52,0,0,1,6.52,27.26" style="fill: rgb(12, 37, 80); transform-origin: 63.5779px 324.14px;" id="elgrz2l5vde5" class="animable"></path><path d="M85.58,319.22c1.25-2.92,2.14-6,3.27-9A25.77,25.77,0,0,1,93.51,302a12.3,12.3,0,0,1,8.26-4.28,33.28,33.28,0,0,1-16,21.57" style="fill: rgb(12, 37, 80); transform-origin: 93.675px 308.505px;" id="elbypx39iius6" class="animable"></path><path d="M82.26,323.09c-2.08-2.87-4.49-6.76-7.31-8.9s-6.5-3.43-9.94-2.61a23.17,23.17,0,0,0,17.25,11.51" style="fill: rgb(12, 37, 80); transform-origin: 73.635px 317.21px;" id="el4bwynnlhylf" class="animable"></path><path d="M82.92,319.46a49.61,49.61,0,0,1-3.29-10.66A16.65,16.65,0,0,1,81.3,298c3.66,6.92,4.84,14.35,1.81,21.57" style="fill: rgb(12, 37, 80); transform-origin: 82.0974px 308.785px;" id="elptb9ysm1ghf" class="animable"></path><path d="M85.61,298c2.07-6.86,8.36-11.91,15.14-14.23a5.63,5.63,0,0,1,2.65-.4,2.32,2.32,0,0,1,2,1.63c.24,1.17-.72,2.22-1.63,3a51.35,51.35,0,0,1-18.12,10" style="fill: rgb(12, 37, 80); transform-origin: 95.5237px 290.673px;" id="elw8bycpplru" class="animable"></path><path d="M85.68,292.36c.27-4.43.54-8.91,2-13.1s4.21-8.13,8.25-10c.68,4.47-1.29,8.91-3.66,12.76s-5.25,7.47-6.67,11.76" style="fill: rgb(12, 37, 80); transform-origin: 90.833px 281.52px;" id="elsq592bmzvwa" class="animable"></path><path d="M85.58,295.4c-1.72-5-1.89-11.35-4.89-15.7-2.09-3.05-5.44-5.12-7.25-8.35a12.72,12.72,0,0,0,.43,9.48,27.31,27.31,0,0,0,5.53,7.92c2.22,2.37,4.12,4.15,6.18,6.65" style="fill: rgb(12, 37, 80); transform-origin: 79.1524px 283.375px;" id="el8auveopi1lo" class="animable"></path><path d="M85.61,442.64c-.13,0-.25-33.35-.26-74.49s.09-74.49.23-74.49.24,33.35.25,74.49S85.74,442.64,85.61,442.64Z" style="fill: rgb(38, 50, 56); transform-origin: 85.59px 368.15px;" id="elvkecmfk4bf" class="animable"></path><path d="M114.76,342.73a7.13,7.13,0,0,1-1.26.47l-3.45,1.17c-2.91,1-6.91,2.42-11.24,4.2s-8.35,3.34-10.66,5.34A7.9,7.9,0,0,0,86,356.74c-.33.79-.39,1.27-.43,1.26s0-.13,0-.35a5.59,5.59,0,0,1,.25-1,7.49,7.49,0,0,1,2.08-3,18.86,18.86,0,0,1,4.63-2.88c1.85-.86,3.9-1.76,6.07-2.65C103,346.34,107,345,110,344c1.47-.45,2.67-.79,3.5-1A8.14,8.14,0,0,1,114.76,342.73Z" style="fill: rgb(38, 50, 56); transform-origin: 100.156px 350.365px;" id="elxyp4c91b0b" class="animable"></path><path d="M124.31,319.27a2.17,2.17,0,0,1-.35.37l-1.07,1-4,3.63-13.3,11.84c-5.19,4.62-9.67,9-12.78,12.36-1.56,1.66-2.78,3-3.62,4l-1,1.11q-.33.38-.36.36a2.41,2.41,0,0,1,.29-.43c.2-.26.49-.66.9-1.16.79-1,2-2.41,3.51-4.1a166.52,166.52,0,0,1,12.71-12.49c5.21-4.61,10-8.75,13.4-11.74l4.09-3.51,1.13-.94C124.16,319.36,124.3,319.25,124.31,319.27Z" style="fill: rgb(38, 50, 56); transform-origin: 106.07px 336.604px;" id="eltqbsz91fn6s" class="animable"></path><path d="M100,340.82c-.14-.07,1-2.57,2-5.74s1.6-5.83,1.74-5.81a19.46,19.46,0,0,1-1.28,6,41,41,0,0,1-1.62,4A6.31,6.31,0,0,1,100,340.82Z" style="fill: rgb(38, 50, 56); transform-origin: 101.864px 335.045px;" id="el5qhnegom7x6" class="animable"></path><path d="M85.64,361a5.64,5.64,0,0,1-.8-.93l-2-2.62c-1.72-2.23-4.1-5.3-6.77-8.66s-5.12-6.38-6.89-8.56L67,337.64a5.67,5.67,0,0,1-.72-1,6.13,6.13,0,0,1,.87.87c.53.58,1.29,1.43,2.21,2.49,1.84,2.13,4.34,5.11,7,8.48s5,6.47,6.66,8.75c.83,1.14,1.49,2.07,1.93,2.72A6,6,0,0,1,85.64,361Z" style="fill: rgb(38, 50, 56); transform-origin: 75.96px 348.82px;" id="el61h3622hbqf" class="animable"></path><path d="M79.25,352.8a11.85,11.85,0,0,1-2.68-5,14.07,14.07,0,0,1-.6-5.06l.21,0c-.1.39-.17.59-.2.58s0-.22,0-.61h.21a23.2,23.2,0,0,0,.85,4.92A38.07,38.07,0,0,0,79.25,352.8Z" style="fill: rgb(38, 50, 56); transform-origin: 77.5956px 347.755px;" id="ell7t9nk9sx7" class="animable"></path><path d="M71,342.42a9,9,0,0,0-1.87-1.09,12.51,12.51,0,0,0-5.19-.41,32.52,32.52,0,0,0-5.23.84,15.11,15.11,0,0,1-2.15.52,7.36,7.36,0,0,1,2.06-.84,23.19,23.19,0,0,1,5.28-1,11.3,11.3,0,0,1,5.36.58A3.33,3.33,0,0,1,71,342.42Z" style="fill: rgb(38, 50, 56); transform-origin: 63.78px 341.38px;" id="ell44pc5iiv3m" class="animable"></path><path d="M69,339.9c0,.08-1.09-.43-2.86-1A29.44,29.44,0,0,0,59,337.39a29.8,29.8,0,0,0-7.28.37c-1.85.33-3,.68-3,.6a2.71,2.71,0,0,1,.76-.33,19.69,19.69,0,0,1,2.16-.6,25.21,25.21,0,0,1,7.39-.52,25.77,25.77,0,0,1,7.23,1.63,17.81,17.81,0,0,1,2,.93A2.84,2.84,0,0,1,69,339.9Z" style="fill: rgb(38, 50, 56); transform-origin: 58.86px 338.372px;" id="elwebnbs3zs3c" class="animable"></path><path d="M85.58,329.27A58.39,58.39,0,0,1,83.49,322a57.88,57.88,0,0,1-1.62-7.37A60.51,60.51,0,0,1,84,321.9,59.61,59.61,0,0,1,85.58,329.27Z" style="fill: rgb(38, 50, 56); transform-origin: 83.725px 321.95px;" id="elhkmhzfp9m5h" class="animable"></path><path d="M85.71,329.27a34.49,34.49,0,0,0-2.32-4.34,18.74,18.74,0,0,0-3.4-3.52,3.24,3.24,0,0,1,1.31.68,10.33,10.33,0,0,1,2.49,2.56A9.57,9.57,0,0,1,85.71,329.27Z" style="fill: rgb(38, 50, 56); transform-origin: 82.85px 325.34px;" id="ele3vgemua9tf" class="animable"></path><path d="M85.61,424.86s-.15-.8-.53-2.22a32.06,32.06,0,0,0-2.22-5.77A80.07,80.07,0,0,0,71,400.21c-2.64-3-5.2-5.86-7.38-8.59a61.55,61.55,0,0,1-5.27-7.6,37,37,0,0,1-2.66-5.65c-.25-.7-.43-1.24-.52-1.61a2.4,2.4,0,0,1-.14-.58s.28.76.83,2.12a42.21,42.21,0,0,0,2.78,5.54,63.38,63.38,0,0,0,5.33,7.5c2.18,2.7,4.75,5.53,7.39,8.55,5.35,6,9.53,12,11.77,16.83a29,29,0,0,1,2.11,5.88c.15.72.25,1.28.29,1.67A2.39,2.39,0,0,1,85.61,424.86Z" style="fill: rgb(38, 50, 56); transform-origin: 70.32px 400.52px;" id="eluyadmlc3kg" class="animable"></path><path d="M112,395.11a12.7,12.7,0,0,1-1.38.78,29.13,29.13,0,0,0-3.58,2.36,42.45,42.45,0,0,0-4.71,4.29c-1.65,1.75-3.35,3.77-5.08,5.94-3.47,4.35-6.71,8.2-8.66,11.28-1,1.52-1.7,2.81-2.17,3.71a10.07,10.07,0,0,1-.76,1.39s0-.14.13-.39.24-.62.46-1.08a35,35,0,0,1,2.06-3.81,122.28,122.28,0,0,1,8.56-11.4c1.74-2.18,3.46-4.2,5.14-5.95a39.36,39.36,0,0,1,4.82-4.25,25.05,25.05,0,0,1,3.7-2.26c.46-.23.83-.37,1.08-.48A1.53,1.53,0,0,1,112,395.11Z" style="fill: rgb(38, 50, 56); transform-origin: 98.83px 409.985px;" id="el5zo70a1xx5g" class="animable"></path><path d="M112.46,404.76a19.56,19.56,0,0,1-2.91.43,38.21,38.21,0,0,0-6.92,1.36,20.91,20.91,0,0,0-6.2,3.25c-1.43,1.1-2.1,2-2.17,2a2.55,2.55,0,0,1,.44-.67,10.62,10.62,0,0,1,1.52-1.55,18.66,18.66,0,0,1,6.26-3.45,30.77,30.77,0,0,1,7-1.24A17,17,0,0,1,112.46,404.76Z" style="fill: rgb(38, 50, 56); transform-origin: 103.36px 408.272px;" id="eleu7gp4q6p1k" class="animable"></path><path d="M95.11,410.7c-.15-.08,1.17-2.09,2.19-4.79s1.18-5.12,1.35-5.09a4.64,4.64,0,0,1-.05,1.56,16.31,16.31,0,0,1-.85,3.69,17.89,17.89,0,0,1-1.69,3.38C95.54,410.27,95.17,410.74,95.11,410.7Z" style="fill: rgb(38, 50, 56); transform-origin: 96.8959px 405.761px;" id="elfhyk0szpp19" class="animable"></path><path d="M120.48,369.2a2.39,2.39,0,0,1-.47.25l-1.37.62c-.6.26-1.33.59-2.15,1s-1.79.86-2.79,1.47l-1.59.9c-.55.32-1.1.7-1.68,1.06-1.17.71-2.35,1.59-3.6,2.48A62.24,62.24,0,0,0,93,391.36c-.85,1.29-1.69,2.49-2.36,3.69-.34.59-.7,1.15-1,1.71s-.58,1.11-.85,1.63c-.57,1-1,2-1.37,2.83s-.7,1.58-.94,2.19-.43,1-.58,1.39a1.69,1.69,0,0,1-.23.47,2.49,2.49,0,0,1,.14-.51l.49-1.42c.21-.62.49-1.38.87-2.23s.77-1.84,1.32-2.88c.26-.52.54-1.07.82-1.64s.65-1.14,1-1.74c.66-1.22,1.49-2.44,2.33-3.74a59.53,59.53,0,0,1,14-14.46c1.27-.9,2.47-1.77,3.66-2.47.59-.36,1.14-.73,1.7-1l1.62-.88c1-.59,2-1,2.83-1.41s1.58-.72,2.2-1l1.4-.54A2.59,2.59,0,0,1,120.48,369.2Z" style="fill: rgb(38, 50, 56); transform-origin: 103.075px 387.235px;" id="elkvpb3iyucxc" class="animable"></path><path d="M99.63,383.17a3.36,3.36,0,0,1,1.15-1.71,7.21,7.21,0,0,1,4.62-1.77,12.67,12.67,0,0,1,4.86.95,7,7,0,0,1,1.83.89,10.29,10.29,0,0,1-1.94-.57,14.83,14.83,0,0,0-4.74-.79,7.58,7.58,0,0,0-4.41,1.55A15.32,15.32,0,0,0,99.63,383.17Z" style="fill: rgb(38, 50, 56); transform-origin: 105.86px 381.43px;" id="el405tyu5ezz" class="animable"></path><path d="M96.52,386.38a17.2,17.2,0,0,0,1.31-4.26,16.82,16.82,0,0,0-.3-4.46c.06,0,.32.43.55,1.25a9,9,0,0,1,.23,3.26,8.62,8.62,0,0,1-1,3.13C96.92,386,96.56,386.42,96.52,386.38Z" style="fill: rgb(38, 50, 56); transform-origin: 97.4433px 382.021px;" id="eljpmjomb9vd" class="animable"></path><path d="M62.57,429.64c.72,12.75,4.56,25.71,10.47,38.81H98.73c5.64-13,9.21-25.91,9.85-38.81Z" style="fill: rgb(69, 90, 100); transform-origin: 85.575px 449.045px;" id="el5h0lurfsjpu" class="animable"></path><path d="M104.41,450.26c0,.14-8.45.25-18.89.25s-18.89-.11-18.89-.25,8.46-.24,18.89-.24S104.41,450.13,104.41,450.26Z" style="fill: rgb(250, 250, 250); transform-origin: 85.52px 450.265px;" id="elqol5xtw5jc" class="animable"></path><path d="M103.84,454.88c0,.14-7.93.24-17.71.24s-17.71-.1-17.71-.24,7.93-.24,17.71-.24S103.84,454.75,103.84,454.88Z" style="fill: rgb(250, 250, 250); transform-origin: 86.13px 454.88px;" id="eltoq61h08hdc" class="animable"></path></g><g id="freepik--Chart--inject-2" class="animable animator-active" style="transform-origin: 170.465px 142.385px;"><polygon points="282.8 231.53 57.89 231.53 57.89 53.68 282.94 53.26 282.8 231.53" style="fill: rgb(250, 250, 250); transform-origin: 170.415px 142.395px;" id="eldrtw88yiqsg" class="animable"></polygon><path d="M282.8,231.53c0-1.66,0-71.34-.1-178.27l.24.19-224.7.46h-.35l.28-.23c0,65.06,0,126.07,0,177.85l-.24-.2,224.91.2-224.91.19h-.25v-.2c0-51.78,0-112.79,0-177.85v-.22h.63l224.7-.4h.24v.2C283,160.19,282.81,229.87,282.8,231.53Z" style="fill: rgb(38, 50, 56); transform-origin: 170.465px 142.385px;" id="el4xi06vtc45j" class="animable"></path><path d="M267.68,214.83l-.77,0-2.27,0-8.73.06-32.1.1-105.92.09-45.67,0h-.29v-.29c0-30.26.08-56.28.11-74.77,0-9.21.06-16.55.08-21.6,0-2.5,0-4.43,0-5.76,0-.64,0-1.14,0-1.49s0-.51,0-.51a4.9,4.9,0,0,1,0,.51c0,.35,0,.85,0,1.49,0,1.33,0,3.26,0,5.76,0,5.05.05,12.39.08,21.6,0,18.49.07,44.51.11,74.77l-.29-.29,45.67,0,105.92.09,32.1.1,8.73.06,2.27,0Z" style="fill: rgb(38, 50, 56); transform-origin: 169.805px 162.87px;" id="eln1fav5myje" class="animable"></path><rect x="88.1" y="189.11" width="19.74" height="19.74" style="fill: rgb(12, 37, 80); transform-origin: 97.97px 198.98px;" id="elqxzrm1d4w9d" class="animable"></rect><rect x="117.05" y="174.99" width="19.74" height="33.86" style="fill: rgb(12, 37, 80); transform-origin: 126.92px 191.92px;" id="elkl0m2nug7qf" class="animable"></rect><rect x="146.11" y="158.96" width="19.74" height="49.89" style="fill: rgb(12, 37, 80); transform-origin: 155.98px 183.905px;" id="elquxzzw7xi8j" class="animable"></rect><rect x="174.29" y="141.11" width="19.74" height="67.74" style="fill: rgb(12, 37, 80); transform-origin: 184.16px 174.98px;" id="elbsgtbr561x7" class="animable"></rect><rect x="203.12" y="118.25" width="19.74" height="90.6" style="fill: rgb(12, 37, 80); transform-origin: 212.99px 163.55px;" id="elslpplnamzlh" class="animable"></rect><rect x="231.73" y="100.82" width="19.74" height="107.09" style="fill: rgb(12, 37, 80); transform-origin: 241.6px 154.365px;" id="elpscg8mqclqp" class="animable"></rect><g id="elecy1605jyam"><g style="opacity: 0.5; transform-origin: 126.92px 191.92px;" class="animable"><rect x="117.05" y="174.99" width="19.74" height="33.86" style="fill: rgb(255, 255, 255); transform-origin: 126.92px 191.92px;" id="elovlwjcwo8j8" class="animable"></rect></g></g><g id="elvk63haya4h"><g style="opacity: 0.5; transform-origin: 184.16px 174.98px;" class="animable"><rect x="174.29" y="141.11" width="19.74" height="67.74" style="fill: rgb(255, 255, 255); transform-origin: 184.16px 174.98px;" id="elld3xwa3m8cb" class="animable"></rect></g></g><g id="elmq5twrk0ghq"><g style="opacity: 0.5; transform-origin: 241.6px 154.365px;" class="animable"><rect x="231.73" y="100.82" width="19.74" height="107.09" style="fill: rgb(255, 255, 255); transform-origin: 241.6px 154.365px;" id="el145fos8xipa" class="animable"></rect></g></g><path d="M88.1,168.86a1.52,1.52,0,0,1,.26-.19l.77-.53,3-2,11.32-7.45,39.18-25.61.45-.3v.54c0,2.8,0,5.79,0,8.84l-.47-.25,15.44-10.35,54.49-36.4,16.55-11,4.52-3,1.18-.75a2.18,2.18,0,0,1,.42-.24,3.58,3.58,0,0,1-.38.29l-1.15.81-4.46,3L212.79,95.5l-54.38,36.55L143,142.39l-.47.32v-.57c0-3,0-6,0-8.84l.45.25L103.65,159l-11.41,7.32-3.06,1.93-.8.49C88.2,168.82,88.11,168.87,88.1,168.86Z" style="fill: rgb(38, 50, 56); transform-origin: 161.655px 124.516px;" id="elie3ldyn1tmi" class="animable"></path><path d="M235.22,88.56a9.24,9.24,0,0,1-.21-2.43c-.06-1.51-.09-3.61-.1-6l.31.31h-.76c-2.53,0-4.82,0-6.47-.09a11.65,11.65,0,0,1-2.69-.22A12.08,12.08,0,0,1,228,80c1.65-.06,3.94-.09,6.47-.09h1.06v.3c0,2.36,0,4.46-.1,6A10.18,10.18,0,0,1,235.22,88.56Z" style="fill: rgb(38, 50, 56); transform-origin: 230.415px 84.235px;" id="elpxir3oav4d" class="animable"></path><path d="M91.35,104.45S89,126.25,92,138.19l29.13-1.28s-6.24-21.5-2.41-31Z" style="fill: rgb(235, 235, 235); transform-origin: 105.802px 121.32px;" id="elrvpbezgcb2" class="animable"></path><path d="M91.47,103.75s.2,23.54,1.39,30.72l29.53-1.4s-2.6-23.14-1.6-29.32Z" style="fill: rgb(12, 37, 80); transform-origin: 106.93px 119.11px;" id="elr86hwl0ezc" class="animable"></path><path d="M116.34,113.64c0,.1-4.42.46-9.89.79s-9.91.51-9.92.4,4.42-.47,9.89-.8S116.33,113.53,116.34,113.64Z" style="fill: rgb(255, 255, 255); transform-origin: 106.435px 114.234px;" id="elk3nn3pw2er" class="animable"></path><path d="M116.35,118.62c0,.11-4.42.46-9.89.79s-9.92.51-9.92.4,4.42-.46,9.89-.79S116.34,118.51,116.35,118.62Z" style="fill: rgb(255, 255, 255); transform-origin: 106.445px 119.215px;" id="elk7p664irip" class="animable"></path><path d="M111.33,123.52a7.09,7.09,0,0,1-1.64.23c-1,.1-2.43.21-4,.3s-3,.16-4,.18a6.41,6.41,0,0,1-1.66,0,7.26,7.26,0,0,1,1.65-.23c1-.1,2.43-.21,4-.3s3-.16,4-.18A6.36,6.36,0,0,1,111.33,123.52Z" style="fill: rgb(255, 255, 255); transform-origin: 105.68px 123.875px;" id="elmdrty4a1im" class="animable"></path><path d="M165.17,76.9c0,.17-17.27.3-38.57.3S88,77.07,88,76.9s17.26-.31,38.56-.31S165.17,76.73,165.17,76.9Z" style="fill: rgb(38, 50, 56); transform-origin: 126.585px 76.895px;" id="eldnu447trov" class="animable"></path><path d="M116.36,83.93c0,.17-6.48.3-14.46.3s-14.47-.13-14.47-.3,6.48-.31,14.47-.31S116.36,83.76,116.36,83.93Z" style="fill: rgb(38, 50, 56); transform-origin: 101.895px 83.925px;" id="elbmzpzqehbk" class="animable"></path><path d="M131.72,83.93c0,.17-2.49.3-5.57.3s-5.57-.13-5.57-.3,2.49-.31,5.57-.31S131.72,83.76,131.72,83.93Z" style="fill: rgb(38, 50, 56); transform-origin: 126.15px 83.925px;" id="elwrr199ewvp" class="animable"></path></g><g id="freepik--character-1--inject-2" class="animable" style="transform-origin: 351.923px 281.643px;"><path d="M351,415.69l25.36,20.8-25.72,31.69c-2.87-2.64,4.35-24,4.35-24l-16.79-12.66Z" style="fill: rgb(12, 37, 80); transform-origin: 357.28px 441.935px;" id="el6jl4h789id" class="animable"></path><g id="el5juv7l5s5c"><g style="opacity: 0.6; transform-origin: 362.499px 434.551px;" class="animable"><path d="M361.56,433.3a1.68,1.68,0,0,1,2.21.3,1.62,1.62,0,0,1-.28,2.19,1.78,1.78,0,0,1-2.34-.33,1.66,1.66,0,0,1,.55-2.24" style="fill: rgb(255, 255, 255); transform-origin: 362.499px 434.551px;" id="elzkf78lv741i" class="animable"></path></g></g><g id="el6x2p7q3j34e"><g style="opacity: 0.6; transform-origin: 363.13px 451.28px;" class="animable"><path d="M376.25,436.41l-2.55-2.11-23.57,31.41s-.52,1.91.61,2.55Z" style="fill: rgb(255, 255, 255); transform-origin: 363.13px 451.28px;" id="el8ubzxmzae9s" class="animable"></path></g></g><path d="M354.41,444.6c.16.12.85-.6,2-1s2.09-.23,2.15-.43-1-.68-2.37-.23S354.24,444.51,354.41,444.6Z" style="fill: rgb(38, 50, 56); transform-origin: 356.472px 443.683px;" id="elkza64fbwdil" class="animable"></path><path d="M353.08,449c.12.16.93-.3,2-.29s1.9.42,2,.26-.68-1-2-.95S352.94,448.91,353.08,449Z" style="fill: rgb(38, 50, 56); transform-origin: 355.077px 448.526px;" id="elzbpmkqxekx9" class="animable"></path><path d="M355.53,454.15c.15-.11-.45-1-1.62-1.25s-2.1.16-2,.33.89.09,1.85.35S355.39,454.29,355.53,454.15Z" style="fill: rgb(38, 50, 56); transform-origin: 353.728px 453.499px;" id="elpuz9wjf13pb" class="animable"></path><path d="M350.9,441.29c.19,0,.56-.84,1.32-1.66s1.6-1.29,1.54-1.48-1.16,0-2.05,1S350.72,441.26,350.9,441.29Z" style="fill: rgb(38, 50, 56); transform-origin: 352.294px 439.687px;" id="elldsx3y7hxff" class="animable"></path><path d="M347.75,437.48c.06,0,.66-.48,1.28-1.59a9.27,9.27,0,0,0,.84-2.08,10,10,0,0,0,.26-1.3,2.5,2.5,0,0,0,0-.78.85.85,0,0,0-.76-.74,1.07,1.07,0,0,0-.91.39,2.48,2.48,0,0,0-.4.66,7.41,7.41,0,0,0-.46,1.26,7.07,7.07,0,0,0-.23,2.24,3.49,3.49,0,0,0,.53,2c.11,0-.08-.78,0-2a8.46,8.46,0,0,1,.35-2.06,7.77,7.77,0,0,1,.46-1.14c.19-.41.42-.7.63-.66s.11,0,.15.18a1.84,1.84,0,0,1,0,.57,9.29,9.29,0,0,1-.2,1.23,12.15,12.15,0,0,1-.66,2A15.22,15.22,0,0,0,347.75,437.48Z" style="fill: rgb(38, 50, 56); transform-origin: 348.759px 434.264px;" id="elclvgkzhy3r5" class="animable"></path><path d="M348.14,437.46c.07,0-.24-.79-1.2-1.66a6.67,6.67,0,0,0-1.91-1.2,7.18,7.18,0,0,0-1.29-.38,1.7,1.7,0,0,0-1.62.37.94.94,0,0,0-.1,1,2.69,2.69,0,0,0,.45.63,4.35,4.35,0,0,0,1.07.87,4.58,4.58,0,0,0,2.19.65c1.32.05,2-.44,2-.5a16.62,16.62,0,0,1-2,0,5,5,0,0,1-1.9-.71,4.61,4.61,0,0,1-.89-.78c-.29-.32-.46-.67-.33-.76a1.16,1.16,0,0,1,1-.14,7.13,7.13,0,0,1,3,1.29C347.6,436.89,348.05,437.52,348.14,437.46Z" style="fill: rgb(38, 50, 56); transform-origin: 345.035px 435.947px;" id="elwyz5f563dvp" class="animable"></path><path d="M362.27,435.66,362,468.45l-40.81-.17c.26-3.9,21.41-11.63,21.41-11.63l-.67-21Z" style="fill: rgb(12, 37, 80); transform-origin: 341.73px 452.05px;" id="elzsmy3ng8dqj" class="animable"></path><g id="elq9ukuc63pxf"><g style="opacity: 0.6; transform-origin: 354.785px 456.465px;" class="animable"><path d="M355.18,454.93a1.68,1.68,0,0,1,1.15,1.91,1.6,1.6,0,0,1-1.88,1.15,1.76,1.76,0,0,1-1.21-2,1.67,1.67,0,0,1,2.09-1" style="fill: rgb(255, 255, 255); transform-origin: 354.785px 456.465px;" id="elrcw0fwqhggj" class="animable"></path></g></g><g id="el3bu7rd1sgof"><g style="opacity: 0.6; transform-origin: 341.567px 466.715px;" class="animable"><path d="M362,468.32l0-3.31-39.24,1.33s-1.82.8-1.61,2.08Z" style="fill: rgb(255, 255, 255); transform-origin: 341.567px 466.715px;" id="el0cf16ptsy6fu" class="animable"></path></g></g><path d="M341.89,456.44c0,.2,1,.29,2,.94s1.5,1.48,1.68,1.4-.1-1.23-1.3-2S341.85,456.25,341.89,456.44Z" style="fill: rgb(38, 50, 56); transform-origin: 343.754px 457.517px;" id="el0yj08y9bz7j" class="animable"></path><path d="M337.61,458.19c-.05.19.81.53,1.49,1.38s.86,1.74,1.06,1.73.33-1.13-.53-2.17S337.61,458,337.61,458.19Z" style="fill: rgb(38, 50, 56); transform-origin: 338.958px 459.705px;" id="el0dp4etbmydhf" class="animable"></path><path d="M335.15,463.3c.18,0,.47-.95,0-2s-1.44-1.54-1.52-1.37.49.75.89,1.66S335,463.28,335.15,463.3Z" style="fill: rgb(38, 50, 56); transform-origin: 334.514px 461.598px;" id="elgil0f8yhg2p" class="animable"></path><path d="M342.27,451.63c.09.18,1-.09,2.13,0s2,.44,2.11.27-.74-.88-2.07-1S342.18,451.47,342.27,451.63Z" style="fill: rgb(38, 50, 56); transform-origin: 344.392px 451.416px;" id="elzyyedsxhcbe" class="animable"></path><path d="M343.27,446.79a3.82,3.82,0,0,0,2,0,9.29,9.29,0,0,0,2.14-.65,8.37,8.37,0,0,0,1.18-.62,2.67,2.67,0,0,0,.62-.47.86.86,0,0,0,.09-1.06,1,1,0,0,0-.87-.46,2.28,2.28,0,0,0-.77.1,7.89,7.89,0,0,0-1.27.43,7.36,7.36,0,0,0-1.89,1.23c-1,.87-1.27,1.61-1.21,1.65s.56-.55,1.52-1.27a8.22,8.22,0,0,1,1.83-1,7.06,7.06,0,0,1,1.18-.36c.43-.11.8-.11.91.08s0,.1,0,.23a2,2,0,0,1-.45.35,11.38,11.38,0,0,1-3.07,1.36A13,13,0,0,0,343.27,446.79Z" style="fill: rgb(38, 50, 56); transform-origin: 346.356px 445.235px;" id="eljiwr9hv9pqe" class="animable"></path><path d="M343.53,447.08a3.3,3.3,0,0,0,.54-2,6.39,6.39,0,0,0-.27-2.24,6.85,6.85,0,0,0-.51-1.25,1.7,1.7,0,0,0-1.3-1,1,1,0,0,0-.86.56,3.18,3.18,0,0,0-.21.75,4.57,4.57,0,0,0,0,1.38,4.69,4.69,0,0,0,.87,2.11c.79,1.06,1.62,1.31,1.64,1.24s-.63-.49-1.23-1.51a4.58,4.58,0,0,1-.64-1.92,4.27,4.27,0,0,1,0-1.18c.06-.44.23-.79.39-.74s.55.33.71.67a6,6,0,0,1,.5,1.11,6.93,6.93,0,0,1,.39,2C343.63,446.3,343.42,447.05,343.53,447.08Z" style="fill: rgb(38, 50, 56); transform-origin: 342.474px 443.835px;" id="el1lnrs8bzdm" class="animable"></path><path d="M360.33,245.71s5.71,6.13,8.52,12,4.61,19.87,4.61,19.87,7.9,17.59,6.7,26.59-9.25,70.55-9.25,70.55.4,59.83-5.3,70.5L364.34,451l-23-4.09h0l-1.3-3.16-3.5-117.62L322.2,246.25Z" style="fill: rgb(69, 90, 100); transform-origin: 351.242px 348.355px;" id="el8sf4o29ay2q" class="animable"></path><path d="M350,269.75a3.08,3.08,0,0,0,.15-.94c.07-.6.11-1.48.12-2.57a75.74,75.74,0,0,0-.5-8.47c-.38-3.2-.71-6.09-1-8.41a30.22,30.22,0,0,0-.45-3.48,18.2,18.2,0,0,0,.05,3.52c.14,2.16.47,5.14.82,8.43s.6,6.26.67,8.41S349.89,269.74,350,269.75Z" style="fill: rgb(69, 90, 100); transform-origin: 349.264px 257.815px;" id="eluc2shkp4fir" class="animable"></path><path d="M345.71,255.59a15,15,0,0,0,1.15-4.76,15.19,15.19,0,0,0,.13-4.89,37.9,37.9,0,0,0-.68,4.82A40.52,40.52,0,0,0,345.71,255.59Z" style="fill: rgb(69, 90, 100); transform-origin: 346.419px 250.765px;" id="elrell39gscps" class="animable"></path><path d="M330.94,250.86c.1,0,.07-.75.89-1.32a1.67,1.67,0,0,1,1.57-.16,1.63,1.63,0,0,1,0,3.05,1.69,1.69,0,0,1-1.57-.21c-.8-.6-.74-1.39-.84-1.36s-.09.17-.05.49a1.84,1.84,0,0,0,.65,1.17,2,2,0,0,0,2,.4,2.13,2.13,0,0,0,.07-4,2,2,0,0,0-2,.32,1.85,1.85,0,0,0-.69,1.15C330.86,250.69,330.91,250.86,330.94,250.86Z" style="fill: rgb(69, 90, 100); transform-origin: 332.963px 250.908px;" id="elk4b27f7hmms" class="animable"></path><path d="M338.17,380.65a2.27,2.27,0,0,0,0,.64c0,.48,0,1.09,0,1.84,0,1.6,0,3.91.11,6.77.13,5.71.44,13.59.82,22.29s.63,16.59.75,22.3c.06,2.8.1,5.09.14,6.76,0,.75,0,1.36.05,1.84a4.6,4.6,0,0,0,.05.64,2.69,2.69,0,0,0,.06-.64c0-.48,0-1.09,0-1.84,0-1.6.05-3.91,0-6.77,0-5.71-.21-13.6-.59-22.31s-.73-16.52-1-22.29c-.12-2.79-.21-5.08-.29-6.75,0-.75-.07-1.36-.09-1.84A4.09,4.09,0,0,0,338.17,380.65Z" style="fill: rgb(69, 90, 100); transform-origin: 339.16px 412.19px;" id="eliikzzs1rwq" class="animable"></path><path d="M307.12,261.87s-11.32,77-12.53,90.17,45.6,82.44,45.6,82.44l21.41-22.29-30.72-57.12,10-57.56L327,246.65l-18.07-.28Z" style="fill: rgb(69, 90, 100); transform-origin: 328.083px 340.425px;" id="elac54ovdaxvs" class="animable"></path><path d="M369.14,426.78s0,.58-.17,1.68-.41,2.71-.79,4.79c-.77,4.17-2,10.21-3.67,17.76l0,.16-.16,0-23-4-.18,0v-.18c-.64-15.79-1.41-34.66-2.23-54.9-.85-21.78-1.63-42-2.28-58.54v0c-1.72-13.31-3.15-24.31-4.15-32-.48-3.83-.86-6.83-1.12-8.9-.12-1-.21-1.79-.28-2.34s-.07-.8-.07-.8.06.27.14.79.19,1.33.34,2.33c.29,2.07.7,5.07,1.24,8.89l4.33,32h0c.67,16.56,1.49,36.75,2.37,58.53.79,20.24,1.53,39.11,2.15,54.9l-.18-.2,23,4.13-.19.13c1.71-7.54,3-13.57,3.82-17.72.41-2.08.71-3.69.88-4.78.09-.54.15-1,.18-1.24A4.19,4.19,0,0,1,369.14,426.78Z" style="fill: rgb(38, 50, 56); transform-origin: 350.09px 370.34px;" id="elsyr8f4rq0u" class="animable"></path><path d="M378,161.76A44.55,44.55,0,0,1,388,175c3.37,6.9,23.95,46.92,21.1,51.27s-11.24,8-12.08,7.88-16.61-9.61-16.61-9.61-9.81-31.3-9.92-31.38S378,161.76,378,161.76Z" style="fill: rgb(224, 224, 224); transform-origin: 389.929px 197.956px;" id="elqcixez73db" class="animable"></path><path d="M297.94,215s-3.87,57.86-3.43,60.91,8.1,17.95,8.1,17.95l5.13-17.47-4.18-8.48,6.77-47.67Z" style="fill: rgb(183, 136, 118); transform-origin: 302.403px 254.43px;" id="elxoxh83khut" class="animable"></path><path d="M323.8,157.63l8.23-1.28s-.39,14.72,12.37,15.25c14.49.6,17-14.88,17-14.88s14,2.58,16.56,4.94-9.59,64.13-9.59,64.13l1.16,39.89s-15.52,7.79-33.68,8a39.73,39.73,0,0,1-28.68-11.79l-3.35-8.65,6.34-32Z" style="fill: rgb(224, 224, 224); transform-origin: 341.067px 215.016px;" id="elq1x7a9kd9hh" class="animable"></path><path d="M323.8,157.91s-10.15,3-13.23,7.12-14.15,51.25-14.15,51.25l13.69,5.26Z" style="fill: rgb(224, 224, 224); transform-origin: 310.11px 189.725px;" id="el8jexgv9n94k" class="animable"></path><path d="M317.13,173.78a2,2,0,0,1,0,.51c0,.38-.12.86-.2,1.43-.2,1.32-.48,3.09-.81,5.25-.7,4.51-1.65,10.59-2.69,17.32s-1.89,12.84-2.55,17.35c-.32,2.16-.58,3.93-.77,5.25l-.24,1.43c-.05.33-.09.5-.11.49a1.89,1.89,0,0,1,0-.5c0-.39.08-.87.14-1.44.12-1.25.33-3.05.6-5.28.55-4.46,1.38-10.6,2.4-17.38s2.05-12.88,2.85-17.3c.39-2.21.73-4,1-5.23.11-.56.21-1,.29-1.41A1.7,1.7,0,0,1,317.13,173.78Z" style="fill: rgb(38, 50, 56); transform-origin: 313.445px 198.295px;" id="elz38r7p71rn" class="animable"></path><path d="M352.1,198.5a10.79,10.79,0,0,1-.91,1.29c-.6.82-1.52,2-2.72,3.33a69.87,69.87,0,0,1-22.59,17c-1.64.77-3,1.35-3.95,1.7a10.63,10.63,0,0,1-1.5.5,9.28,9.28,0,0,1,1.42-.69c.93-.41,2.25-1,3.87-1.84a77.71,77.71,0,0,0,22.47-16.88c1.23-1.33,2.2-2.43,2.85-3.21A7.58,7.58,0,0,1,352.1,198.5Z" style="fill: rgb(38, 50, 56); transform-origin: 336.265px 210.41px;" id="el5o226m1sfr6" class="animable"></path><path d="M316.49,175.46c-.06.14-1.95-.6-4.34-1.27s-4.39-1-4.37-1.19a18.51,18.51,0,0,1,8.71,2.46Z" style="fill: rgb(69, 90, 100); transform-origin: 312.135px 174.239px;" id="elgjtszufhejr" class="animable"></path><path d="M376.86,180.54a2.76,2.76,0,0,1-.62,0l-1.77-.08L368,180.1l-21.37-1.45c-8.35-.65-15.9-1.16-21.38-1.27-2.73-.07-4.95-.08-6.48-.07H317a2.4,2.4,0,0,1-.61,0,2.2,2.2,0,0,1,.61-.08c.4,0,1-.07,1.76-.1,1.53-.07,3.76-.12,6.5-.1,5.49,0,13.06.47,21.41,1.12l21.36,1.6,6.47.54,1.76.18A2.52,2.52,0,0,1,376.86,180.54Z" style="fill: rgb(69, 90, 100); transform-origin: 346.625px 178.791px;" id="elztiosk6mz8p" class="animable"></path><path d="M314.49,186.51a25.64,25.64,0,0,1-5-.41,24.89,24.89,0,0,1-5-.93,24.75,24.75,0,0,1,5,.41A24.07,24.07,0,0,1,314.49,186.51Z" style="fill: rgb(69, 90, 100); transform-origin: 309.49px 185.839px;" id="ele0q5lty1jlj" class="animable"></path><path d="M373.8,197a2,2,0,0,1-.61,0l-1.73-.07c-1.51-.08-3.69-.21-6.39-.4-5.38-.38-12.83-1-21-2.23-4.08-.62-7.94-1.36-11.44-2s-6.67-1.2-9.35-1.52-4.85-.43-6.35-.47-2.34,0-2.35-.06a2.7,2.7,0,0,1,.61-.07c.4,0,1-.07,1.74-.07a53.26,53.26,0,0,1,6.4.31c2.69.27,5.87.77,9.38,1.41s7.37,1.37,11.44,2c8.13,1.24,15.56,1.91,20.93,2.38l6.37.56,1.73.18A3.13,3.13,0,0,1,373.8,197Z" style="fill: rgb(69, 90, 100); transform-origin: 344.19px 193.565px;" id="el2kdhdxa0xq6" class="animable"></path><path d="M338.76,210.69a5.19,5.19,0,0,1-1.07,0c-.68,0-1.67-.14-2.89-.26-2.43-.24-5.79-.64-9.49-1.15s-7-1-9.45-1.48c-1.2-.21-2.17-.4-2.84-.54a4.85,4.85,0,0,1-1-.27,3.94,3.94,0,0,1,1.07.07l2.87.38,9.46,1.33,9.47,1.3,2.86.42A3.71,3.71,0,0,1,338.76,210.69Z" style="fill: rgb(69, 90, 100); transform-origin: 325.39px 208.849px;" id="el62uzajbgcqq" class="animable"></path><path d="M370.36,217.8a5.94,5.94,0,0,1-1.34-.05l-3.64-.33c-3.07-.3-7.31-.75-12-1.28s-8.91-1-12-1.44l-3.62-.5a6.27,6.27,0,0,1-1.32-.25,8,8,0,0,1,1.34.05l3.64.33c3.06.3,7.3.76,12,1.29s8.9,1,12,1.44l3.62.49A7.78,7.78,0,0,1,370.36,217.8Z" style="fill: rgb(69, 90, 100); transform-origin: 353.4px 215.879px;" id="elek5urgf6i75" class="animable"></path><path d="M368.8,234.46a2.34,2.34,0,0,1-.61-.06l-1.73-.28L360.11,233c-5.36-.92-12.78-2.23-21-3.06-4.13-.41-8.08-.66-11.67-.73s-6.84,0-9.56,0-4.94-.12-6.46-.26c-.76-.07-1.34-.13-1.74-.19a4.49,4.49,0,0,1-.61-.11,2.5,2.5,0,0,1,.62,0l1.75.1c1.52.07,3.72.12,6.44.09s6-.14,9.57-.09,7.57.28,11.71.69c8.28.83,15.7,2.2,21.05,3.22,2.67.52,4.83,1,6.32,1.28l1.71.37A2.81,2.81,0,0,1,368.8,234.46Z" style="fill: rgb(69, 90, 100); transform-origin: 338.935px 231.546px;" id="elqgb1igwbwx" class="animable"></path><path d="M369.09,253.5a2.85,2.85,0,0,1-.64.12c-.43.07-1.06.14-1.87.2a38.67,38.67,0,0,1-6.91-.19c-5.83-.59-13.62-2.68-22.39-4s-16.76-2.37-22.51-3.27a63.55,63.55,0,0,1-6.79-1.24,13.71,13.71,0,0,1-1.78-.62,2.6,2.6,0,0,1-.58-.3,3.34,3.34,0,0,1,.62.2A18.07,18.07,0,0,0,308,245c1.57.39,3.91.67,6.79,1.07,5.76.8,13.75,1.74,22.54,3.12s16.59,3.44,22.35,4.11a43.71,43.71,0,0,0,6.86.36C368.19,253.57,369.08,253.44,369.09,253.5Z" style="fill: rgb(69, 90, 100); transform-origin: 337.355px 249.047px;" id="elpox4lsge838" class="animable"></path><path d="M313,201a38.74,38.74,0,0,1-6.24-.83,38.14,38.14,0,0,1-6.16-1.34,38.53,38.53,0,0,1,6.25.83A38.83,38.83,0,0,1,313,201Z" style="fill: rgb(69, 90, 100); transform-origin: 306.8px 199.915px;" id="elctffb3x697p" class="animable"></path><path d="M311,215.55s-.21.08-.58,0a5.05,5.05,0,0,1-1.47-.51l-4.52-2.17c-3.54-1.69-6.45-3-6.39-3.11a8,8,0,0,1,2,.64c1.2.46,2.84,1.15,4.62,2s3.35,1.67,4.47,2.31A7.37,7.37,0,0,0,311,215.55Z" style="fill: rgb(69, 90, 100); transform-origin: 304.52px 212.673px;" id="eltxo9a74j3t" class="animable"></path><path d="M306,258.75a3.15,3.15,0,0,1,.64.13l1.8.47c1.56.4,3.84.94,6.67,1.47s6.24,1,10,1.41,8,.58,12.4.89c8.8.63,16.78,1,22.56.81,2.88-.07,5.21-.26,6.82-.39l1.85-.18a2.75,2.75,0,0,1,.66,0,3.16,3.16,0,0,1-.64.13c-.42.07-1,.17-1.85.28-1.6.19-3.94.44-6.83.56a205.65,205.65,0,0,1-22.61-.66c-4.39-.31-8.6-.52-12.41-.94s-7.22-.94-10.06-1.52-5.1-1.17-6.66-1.64c-.77-.22-1.37-.42-1.77-.56A4,4,0,0,1,306,258.75Z" style="fill: rgb(69, 90, 100); transform-origin: 337.7px 261.574px;" id="el9a2w1gpiwhf" class="animable"></path><path d="M301.51,276.36q4.46,6.66,9.14,13.18c.14.18.3.38.53.38s.46-.35.53-.64a10,10,0,0,0-.77-5.68,44.44,44.44,0,0,1-2.07-5.42c-.47-1.95-.46-4-1.3-5.87-.46-1-1.09-1.89-1.56-2.87a6.72,6.72,0,0,0-3.4-3.45" style="fill: rgb(183, 136, 118); transform-origin: 306.671px 277.955px;" id="el6d55alwtq4q" class="animable"></path><path d="M376.19,183.58a11.2,11.2,0,0,1-.2,1.64l-.74,4.43c-.64,3.74-1.56,8.9-2.62,14.6s-2,10.85-2.77,14.57c-.36,1.79-.66,3.27-.89,4.4a11.45,11.45,0,0,1-.4,1.6,9.77,9.77,0,0,1,.2-1.64c.19-1.13.43-2.63.73-4.43.65-3.74,1.57-8.9,2.62-14.6s2-10.84,2.77-14.56c.36-1.79.67-3.28.9-4.41A9,9,0,0,1,376.19,183.58Z" style="fill: rgb(38, 50, 56); transform-origin: 372.38px 204.2px;" id="el4lz8b7i4eu" class="animable"></path><path d="M393.51,186.81a15.06,15.06,0,0,1-2.7.95c-1.68.51-4,1.2-6.61,1.92s-4.95,1.35-6.66,1.78a15.32,15.32,0,0,1-2.79.59,15.06,15.06,0,0,1,2.7-1c1.68-.51,4-1.2,6.61-1.92s4.94-1.35,6.65-1.78A15.32,15.32,0,0,1,393.51,186.81Z" style="fill: rgb(69, 90, 100); transform-origin: 384.13px 189.43px;" id="elhmd0eq9fyeu" class="animable"></path><path d="M403,205.15a3,3,0,0,1-.91.54,14,14,0,0,1-2.75.9c-2.39.53-5.67,1.15-9.27,2s-6.85,1.68-9.19,2.31l-2.78.74a4,4,0,0,1-1,.22,3.89,3.89,0,0,1,1-.41c.64-.23,1.58-.54,2.74-.9,2.32-.72,5.55-1.63,9.17-2.47s6.93-1.42,9.31-1.85a17.58,17.58,0,0,0,2.75-.73A5.57,5.57,0,0,1,403,205.15Z" style="fill: rgb(69, 90, 100); transform-origin: 390.05px 208.505px;" id="elf64yw5ufkd6" class="animable"></path><path d="M384.13,221.54l-15,39.13,4.25,16.39,27-45.05S390.74,220.68,384.13,221.54Z" style="fill: rgb(183, 136, 118); transform-origin: 384.755px 249.277px;" id="el1w1gmsc2mff" class="animable"></path><polygon points="369.42 259.94 356.09 281.19 356.4 286.66 373.36 293.86 374.59 273.66 369.42 259.94" style="fill: rgb(183, 136, 118); transform-origin: 365.34px 276.9px;" id="el79wvrdbg7ie" class="animable"></polygon><path d="M377.48,296.19c0,.07-1.38-.86-3.72-2a20,20,0,0,0-1.95-.84c-.7-.27-1.51-.46-2.34-.72-1.66-.52-3.46-1.18-5.31-2-3.67-1.63-6.9-3.25-9.26-4.39l-2.78-1.4a5.56,5.56,0,0,1-1-.57,4,4,0,0,1,1.08.39l2.84,1.24,9.32,4.25c1.83.79,3.61,1.45,5.25,2,.81.28,1.61.48,2.34.78a18.25,18.25,0,0,1,2,.91,26.34,26.34,0,0,1,2.66,1.62A4.28,4.28,0,0,1,377.48,296.19Z" style="fill: rgb(38, 50, 56); transform-origin: 364.3px 290.232px;" id="eld2bewohbyk" class="animable"></path><path d="M318.79,119.05c0-6.92,8.08-19.24,15-19l17.72,7.59a4.07,4.07,0,0,1,3.89,3.87l1.76,47.17a12.45,12.45,0,0,1-11.88,12.91h0a12.74,12.74,0,0,1-13.2-11.7c-.23-3.35-.29-7.2-.29-7.18s-8.9-.89-11.47-12.26C319,134.83,318.8,126.74,318.79,119.05Z" style="fill: rgb(183, 136, 118); transform-origin: 337.98px 135.823px;" id="eluc3wawlh727" class="animable"></path><path d="M321.89,127.13a1.49,1.49,0,0,0,1.52,1.4,1.41,1.41,0,0,0,1.43-1.43,1.47,1.47,0,0,0-1.51-1.39A1.4,1.4,0,0,0,321.89,127.13Z" style="fill: rgb(38, 50, 56); transform-origin: 323.365px 127.12px;" id="eljb8duslrik" class="animable"></path><path d="M321.13,123.79c.2.18,1.26-.72,2.85-.82s2.8.62,3,.42-.13-.43-.66-.77a4.18,4.18,0,0,0-2.39-.57,3.9,3.9,0,0,0-2.24.89C321.18,123.35,321,123.71,321.13,123.79Z" style="fill: rgb(38, 50, 56); transform-origin: 324.064px 122.928px;" id="ellctyaxc5p9" class="animable"></path><path d="M337,126.53a1.48,1.48,0,0,0,1.51,1.4,1.42,1.42,0,0,0,1.44-1.43,1.49,1.49,0,0,0-1.52-1.4A1.4,1.4,0,0,0,337,126.53Z" style="fill: rgb(38, 50, 56); transform-origin: 338.475px 126.515px;" id="eloz0pgh5fcw" class="animable"></path><path d="M336.74,123.07c.2.18,1.26-.72,2.84-.81s2.8.62,3,.41-.13-.43-.66-.76a4,4,0,0,0-2.38-.57,3.9,3.9,0,0,0-2.25.89C336.79,122.63,336.64,123,336.74,123.07Z" style="fill: rgb(38, 50, 56); transform-origin: 339.675px 122.211px;" id="elo558l9ch7e" class="animable"></path><path d="M331.75,135.2a10.88,10.88,0,0,0-2.61-.29c-.4,0-.79-.07-.88-.35a2.12,2.12,0,0,1,.19-1.21l1-3.16c1.38-4.5,2.35-8.19,2.17-8.24s-1.45,3.55-2.83,8l-.94,3.18a2.28,2.28,0,0,0-.11,1.6,1,1,0,0,0,.7.55,3,3,0,0,0,.7.05A9.81,9.81,0,0,0,331.75,135.2Z" style="fill: rgb(38, 50, 56); transform-origin: 329.697px 128.657px;" id="el6hdqkx6zo6q" class="animable"></path><path d="M331.63,152.74a29.27,29.27,0,0,0,15.12-5.1s-3.37,8.14-14.94,7.81Z" style="fill: rgb(170, 101, 80); transform-origin: 339.19px 151.55px;" id="eljbz6pyw4ey9" class="animable"></path><path d="M332.67,139a2.83,2.83,0,0,1,2.49-1.22,2.57,2.57,0,0,1,1.86.84,1.65,1.65,0,0,1,.25,1.89,1.92,1.92,0,0,1-2,.66,6,6,0,0,1-2.11-1.08,1.84,1.84,0,0,1-.48-.44.53.53,0,0,1,0-.59" style="fill: rgb(170, 101, 80); transform-origin: 335.025px 139.505px;" id="elsb38qs5v9g8" class="animable"></path><path d="M336.49,136c-.26,0-.15,1.72-1.55,3s-3.24,1.25-3.23,1.49.43.31,1.2.28a4.32,4.32,0,0,0,2.71-1.15,3.72,3.72,0,0,0,1.18-2.54C336.82,136.4,336.6,136,336.49,136Z" style="fill: rgb(38, 50, 56); transform-origin: 334.256px 138.388px;" id="el0402eh1c6u52" class="animable"></path><path d="M336.05,118.46c.18.42,1.75.11,3.62.21s3.42.52,3.64.11c.1-.19-.19-.58-.82-1a6.28,6.28,0,0,0-5.54-.25C336.29,117.9,336,118.26,336.05,118.46Z" style="fill: rgb(38, 50, 56); transform-origin: 339.687px 117.98px;" id="elqdzapsldebs" class="animable"></path><path d="M321.42,119.16c.3.34,1.37-.1,2.68-.2s2.44.08,2.68-.31c.1-.19-.1-.54-.61-.85a3.68,3.68,0,0,0-2.22-.45,3.77,3.77,0,0,0-2.1.86C321.41,118.61,321.29,119,321.42,119.16Z" style="fill: rgb(38, 50, 56); transform-origin: 324.088px 118.307px;" id="elz0j0ecl8pzj" class="animable"></path><path d="M331.85,155.36l-.22-2.62s-5-1.26-7.6-4.47c-3.11-3.77-4.95-11.62-4.35-16.47.53-4.26.08-10.09,6.92-11.62,3-.68,2.4-6.11,4-9,1.64-3,1.38-4,4.77-4.67a35.93,35.93,0,0,1,9.91.1c-1,.84-1.71,1.79-1.54,2.64.21,1.12,2,3.91,2.66,4.85a23.62,23.62,0,0,1,4.16,12c.3,4.92-.95,9.81-2.51,14.48s-3.63,13.37-4.67,18.19-1.21,14.15,2.28,17.64c6,6,19.23,3.23,16.65,1.43-4.12-2.47-7.75-4.77-6.86-11.33a9.3,9.3,0,0,0,10,5.94,18.63,18.63,0,0,1-3.4-13.21,9.11,9.11,0,0,0,6.57,2.55,27,27,0,0,0,7.11-1.2c1.75-.46,3.8-1.23,4.14-3,.39-2.1-1.95-3.63-4-4.25s-4.51-1.27-5.18-3.29c-.75-2.27,1.33-4.53,1.34-6.92,0-3-3-4.89-5-7.1-3.57-4-4.11-9.72-4.68-15s-1.61-11.11-5.73-14.51a13.71,13.71,0,0,0-3.08-1.78A11.31,11.31,0,0,0,349,98.44a19.79,19.79,0,0,0-7.91-3.07,27.42,27.42,0,0,0-16.54,1.84,20.58,20.58,0,0,0-11,12.21c-.68,2.21-1,4.61-2.3,6.49s-4.29,2.92-5.95,1.32a16.35,16.35,0,0,0,1.35,6.5l-3.12-.36a7.58,7.58,0,0,0,5.24,9c-2,1.76-2.16,4.87-1.2,7.32s2.85,4.4,4.7,6.28a6.05,6.05,0,0,0-5,6.34,8.34,8.34,0,0,1,.2,2.8c-.35,1.44-1.83,2.23-2.83,3.32a5.63,5.63,0,0,0,2.42,9.16l2,.85s1.57-3.56,3.18-4.88,8.87-5.43,14.31-6.3l5.44-.87Z" style="fill: rgb(38, 50, 56); transform-origin: 341.537px 137.454px;" id="eld5h1gpqfa9" class="animable"></path><path d="M357.18,177.36a2.3,2.3,0,0,1-.84.15,4.7,4.7,0,0,1-2.34-.62c-1.9-1-3.94-3.53-5.29-7.07a13.58,13.58,0,0,1-.72-2.89,14.61,14.61,0,0,1,0-3.24,20,20,0,0,1,2.28-6.71c1.15-2.22,2.6-4.4,4-6.69a43.93,43.93,0,0,0,3.74-7.41,26.73,26.73,0,0,0,1.8-8,21.1,21.1,0,0,0-.19-3.91,20.12,20.12,0,0,0-.94-3.63c-1.75-4.62-4.79-8-7.27-10.8-1.28-1.37-2.45-2.6-3.47-3.7a7.83,7.83,0,0,1-1.95-3.31,4.23,4.23,0,0,1,.07-2.43,2.12,2.12,0,0,1,.4-.74s-.15.25-.3.78a4.19,4.19,0,0,0,0,2.34,7.82,7.82,0,0,0,2,3.17c1,1.08,2.24,2.26,3.53,3.64,2.52,2.74,5.62,6.16,7.44,10.88a20.35,20.35,0,0,1,1,3.72,22.3,22.3,0,0,1,.2,4,26.81,26.81,0,0,1-1.83,8.21,42.74,42.74,0,0,1-3.79,7.49c-1.43,2.3-2.88,4.46-4,6.64a19.75,19.75,0,0,0-2.28,6.54,12.92,12.92,0,0,0,.65,6c1.27,3.48,3.23,6,5,7a4.73,4.73,0,0,0,2.24.69C356.89,177.41,357.17,177.33,357.18,177.36Z" style="fill: rgb(69, 90, 100); transform-origin: 353.096px 141.935px;" id="elvin2g2n1jv" class="animable"></path><path d="M361.06,120.9c-.08,0-.39-1.11-1.19-2.79a11.88,11.88,0,0,0-1.79-2.7,10.32,10.32,0,0,0-3.17-2.33,30.88,30.88,0,0,1-3.58-2,6.87,6.87,0,0,1-2.22-2.55,4,4,0,0,1-.43-2.24,1.56,1.56,0,0,1,.26-.79,5.25,5.25,0,0,1-.06.81,4.25,4.25,0,0,0,.55,2,7,7,0,0,0,2.17,2.32,36.08,36.08,0,0,0,3.55,1.89,10.31,10.31,0,0,1,3.29,2.47A11.12,11.12,0,0,1,360.2,118a13.5,13.5,0,0,1,.73,2.13C361.06,120.6,361.1,120.89,361.06,120.9Z" style="fill: rgb(69, 90, 100); transform-origin: 354.868px 113.2px;" id="elvmud5l371r" class="animable"></path><path d="M305.66,123a11.94,11.94,0,0,0,2,1,9.29,9.29,0,0,0,6.07,0,11.41,11.41,0,0,0,6.49-6.09,17.21,17.21,0,0,0,1.52-5.19,21.15,21.15,0,0,1,1.42-5.78,13.89,13.89,0,0,1,8.55-7.38,15.56,15.56,0,0,1,9.3.19,13.53,13.53,0,0,1,5.4,3.23,8.22,8.22,0,0,1,1.08,1.34,2.05,2.05,0,0,1,.28.53,14.9,14.9,0,0,0-1.5-1.73,14,14,0,0,0-5.37-3,15.54,15.54,0,0,0-9.05-.09,13.54,13.54,0,0,0-8.21,7.14,20.42,20.42,0,0,0-1.39,5.65,17.62,17.62,0,0,1-1.6,5.32,11.68,11.68,0,0,1-6.81,6.23,9.23,9.23,0,0,1-6.25-.18,7,7,0,0,1-1.51-.83A2.27,2.27,0,0,1,305.66,123Z" style="fill: rgb(69, 90, 100); transform-origin: 326.715px 111.885px;" id="elpioentmmf8g" class="animable"></path><path d="M308.91,160.52c0-.05.55-.2,1.49-.62a12.38,12.38,0,0,0,3.58-2.41,14.09,14.09,0,0,0,3.46-5.35,12.15,12.15,0,0,0,.22-7.68c-.83-2.65-2.19-5.09-2.46-7.62a12,12,0,0,1,1.07-6.47,11.57,11.57,0,0,1,2.59-3.59,8.66,8.66,0,0,1,.94-.76c.23-.15.35-.23.36-.21s-.44.38-1.16,1.11a12.43,12.43,0,0,0-2.39,3.6,12,12,0,0,0-.94,6.26c.29,2.41,1.62,4.79,2.49,7.53a12.42,12.42,0,0,1-.27,8,14,14,0,0,1-3.66,5.45,11.58,11.58,0,0,1-3.76,2.33,7.38,7.38,0,0,1-1.15.36A1.23,1.23,0,0,1,308.91,160.52Z" style="fill: rgb(69, 90, 100); transform-origin: 314.535px 143.163px;" id="el3rqngy4hilk" class="animable"></path></g><g id="freepik--character-2--inject-2" class="animable" style="transform-origin: 353.525px 277.451px;"><path d="M366.18,112a19.8,19.8,0,0,1,18.91-19l1,0c11.06.17,17.1,9.65,16.63,20.7l-.08,44.23s-17.27,10.19-17.93,10.54L377,174l.09-24.86s-10.68-1.19-11.27-11.79C365.56,132.18,365.83,121.59,366.18,112Z" style="fill: rgb(255, 190, 157); transform-origin: 384.231px 133.5px;" id="elpl8ffkzaae" class="animable"></path><path d="M377,149.08a25.79,25.79,0,0,0,13.72-4.67s-2.94,7.77-13.56,7.27Z" style="fill: rgb(235, 153, 110); transform-origin: 383.86px 148.057px;" id="elkch8wi5ake" class="animable"></path><path d="M368.87,120.25a1.52,1.52,0,0,0,1.52,1.47,1.46,1.46,0,0,0,1.51-1.44,1.52,1.52,0,0,0-1.53-1.46A1.45,1.45,0,0,0,368.87,120.25Z" style="fill: rgb(38, 50, 56); transform-origin: 370.385px 120.27px;" id="elccfrqtuidwf" class="animable"></path><path d="M368.69,117.1c.19.19,1.3-.7,2.93-.77s2.86.7,3,.49-.12-.44-.66-.8a4.19,4.19,0,0,0-2.43-.63,4,4,0,0,0-2.33.86C368.75,116.66,368.59,117,368.69,117.1Z" style="fill: rgb(38, 50, 56); transform-origin: 371.659px 116.256px;" id="elanfx731nljd" class="animable"></path><path d="M385,119.91a1.53,1.53,0,0,0,1.53,1.47,1.45,1.45,0,0,0,1.5-1.44,1.51,1.51,0,0,0-1.52-1.46A1.45,1.45,0,0,0,385,119.91Z" style="fill: rgb(38, 50, 56); transform-origin: 386.515px 119.93px;" id="elme1adm6x7v" class="animable"></path><path d="M384.72,116.71c.19.19,1.31-.7,2.93-.77s2.86.7,3,.49-.12-.44-.66-.8a4.19,4.19,0,0,0-2.43-.63,4,4,0,0,0-2.33.86C384.78,116.27,384.62,116.63,384.72,116.71Z" style="fill: rgb(38, 50, 56); transform-origin: 387.689px 115.866px;" id="elzy5071diujo" class="animable"></path><path d="M379.33,129.05a11.25,11.25,0,0,0-2.67-.36c-.42,0-.81-.09-.9-.37a2.12,2.12,0,0,1,.23-1.24c.34-1,.71-2.1,1.09-3.23,1.51-4.58,2.59-8.34,2.4-8.4s-1.56,3.61-3.07,8.19l-1,3.24a2.39,2.39,0,0,0-.15,1.64,1,1,0,0,0,.71.58,3.2,3.2,0,0,0,.71.07A10.41,10.41,0,0,0,379.33,129.05Z" style="fill: rgb(38, 50, 56); transform-origin: 377.34px 122.327px;" id="el09zsojwaqt53" class="animable"></path><path d="M384.17,130c-.26,0-.19,1.77-1.65,3.09s-3.35,1.21-3.35,1.46.43.32,1.23.31a4.41,4.41,0,0,0,2.8-1.12,3.83,3.83,0,0,0,1.27-2.58C384.51,130.39,384.29,130,384.17,130Z" style="fill: rgb(38, 50, 56); transform-origin: 381.822px 132.43px;" id="elyrvnp82ybir" class="animable"></path><path d="M384,110.35c.18.43,1.8.15,3.72.3s3.49.6,3.73.19c.1-.19-.19-.6-.83-1a6.52,6.52,0,0,0-5.67-.38C384.28,109.78,383.94,110.14,384,110.35Z" style="fill: rgb(38, 50, 56); transform-origin: 387.731px 109.997px;" id="elj6f9hgvbf6c" class="animable"></path><path d="M369.08,112.36c.31.36,1.41-.07,2.76-.15s2.5.14,2.75-.26c.11-.19-.09-.55-.6-.88a4,4,0,0,0-4.44.33C369.09,111.8,369,112.19,369.08,112.36Z" style="fill: rgb(38, 50, 56); transform-origin: 371.837px 111.525px;" id="elr7kum7gq3ut" class="animable"></path><path d="M401.48,121.57c.17-.08,7.19-2.47,7.27,4.79s-7.22,5.85-7.24,5.64S401.48,121.57,401.48,121.57Z" style="fill: rgb(255, 190, 157); transform-origin: 405.115px 126.689px;" id="elziujobp2pwm" class="animable"></path><path d="M403.06,129.25s.13.09.34.18a1.27,1.27,0,0,0,1,0,3.14,3.14,0,0,0,1.41-2.82,4.07,4.07,0,0,0-.37-1.81,1.46,1.46,0,0,0-1-1,.63.63,0,0,0-.74.35c-.1.21-.05.35-.09.37s-.16-.12-.1-.42a.79.79,0,0,1,.28-.46,1,1,0,0,1,.7-.2,1.79,1.79,0,0,1,1.33,1.12,4.35,4.35,0,0,1,.46,2c0,1.47-.76,2.84-1.81,3.16a1.35,1.35,0,0,1-1.16-.18C403.08,129.42,403,129.26,403.06,129.25Z" style="fill: rgb(235, 153, 110); transform-origin: 404.661px 126.607px;" id="el56uxilcwg16" class="animable"></path><path d="M395.83,100.22l-30.2,1.91a13.83,13.83,0,0,1,4.23-5.32,23.66,23.66,0,0,1,13.48-5.49c4.93-.29,15.22,5.3,18.93,8.55,3,2.61,3.05,5,3.05,5,.61,3.9-1.4,8.45-2.11,12.33-.37,2-1,8-1,8h0c-1.67.06-2.34-1.24-2.15-2.9l0-6.47a9.76,9.76,0,0,1-3.45-11.27C397.07,104,397.87,101.23,395.83,100.22Z" style="fill: rgb(69, 90, 100); transform-origin: 385.532px 108.256px;" id="elrce6e9cuw4" class="animable"></path><path d="M390.43,123.41a.2.2,0,0,0,.21-.17.18.18,0,0,0-.15-.22.19.19,0,0,0-.21.17A.2.2,0,0,0,390.43,123.41Z" style="fill: rgb(235, 153, 110); transform-origin: 390.462px 123.215px;" id="el31mfcfil1bv" class="animable"></path><path d="M387.29,122.84a.23.23,0,1,0-.15-.25A.22.22,0,0,0,387.29,122.84Z" style="fill: rgb(235, 153, 110); transform-origin: 387.367px 122.623px;" id="elt41v2a2kk9c" class="animable"></path><path d="M385.19,122.88c.1,0,.19-.12.2-.28s-.05-.3-.15-.31-.19.12-.21.28S385.09,122.87,385.19,122.88Z" style="fill: rgb(235, 153, 110); transform-origin: 385.209px 122.585px;" id="elwlivrgqh7ni" class="animable"></path><path d="M389,125.43c.09,0,.17-.06.17-.12s-.08-.12-.18-.11-.18.06-.18.12S388.89,125.43,389,125.43Z" style="fill: rgb(235, 153, 110); transform-origin: 388.99px 125.314px;" id="el7ity3yb5z5" class="animable"></path><path d="M386.1,124.89a.21.21,0,0,0,0-.41.21.21,0,0,0,0,.41Z" style="fill: rgb(235, 153, 110); transform-origin: 386.1px 124.685px;" id="elr93giewor69" class="animable"></path><path d="M371.17,123.76a.2.2,0,0,0,.21-.17.2.2,0,0,0-.15-.23.19.19,0,0,0-.21.17A.2.2,0,0,0,371.17,123.76Z" style="fill: rgb(235, 153, 110); transform-origin: 371.2px 123.56px;" id="elkwr9t0qvai" class="animable"></path><path d="M369,123.66a.21.21,0,0,0,.19-.22.22.22,0,0,0-.17-.24.22.22,0,0,0-.19.22A.21.21,0,0,0,369,123.66Z" style="fill: rgb(235, 153, 110); transform-origin: 369.009px 123.43px;" id="elo76c26ds89k" class="animable"></path><path d="M373,123.73a.16.16,0,0,0,.2-.13.16.16,0,0,0-.15-.18.16.16,0,0,0-.2.13A.17.17,0,0,0,373,123.73Z" style="fill: rgb(235, 153, 110); transform-origin: 373.025px 123.575px;" id="elrifbjiwcakn" class="animable"></path><path d="M371.56,125.92a.21.21,0,0,0,.15-.39.2.2,0,0,0-.24.13A.2.2,0,0,0,371.56,125.92Z" style="fill: rgb(235, 153, 110); transform-origin: 371.639px 125.725px;" id="elm1103dm66r" class="animable"></path><path d="M369.73,125.64a.15.15,0,1,0-.09-.29.16.16,0,0,0-.12.2A.16.16,0,0,0,369.73,125.64Z" style="fill: rgb(235, 153, 110); transform-origin: 369.675px 125.498px;" id="elijoyiq4754h" class="animable"></path><path d="M402.48,100.28a8.83,8.83,0,0,0-2-7.7,8.92,8.92,0,0,0-7.37-3,27.42,27.42,0,0,1-4.21.48c-2.63-.17-4.73-2.19-7.2-3.11A9.23,9.23,0,0,0,371,90.61c-.86,1.41-1.39,3.14-2.77,4.06-1.18.8-2.72.8-4.07,1.27a6.72,6.72,0,0,0-4.25,6.84,7.94,7.94,0,0,0,5.1,6.46,9.65,9.65,0,0,0,8.33-.93c2.23-1.36,4.19-3.61,6.8-3.64s5.17,2.41,7.8,1.78a7.48,7.48,0,0,0,3.38-2.48,6.06,6.06,0,0,1,3.52-2.22c1.41-.15,2.23,1.77,1.78,3.11l5.91-4.58" style="fill: rgb(38, 50, 56); transform-origin: 381.282px 98.1194px;" id="elupa91j1oq6e" class="animable"></path><path d="M366.06,98.27s0,0,.05.1a2.72,2.72,0,0,0,.19.29,4.74,4.74,0,0,0,.91,1,5.19,5.19,0,0,0,1.84,1,5.08,5.08,0,0,0,2.75.05,5.41,5.41,0,0,0,2.82-1.76,37.69,37.69,0,0,0,2-3.27A4.32,4.32,0,0,1,378,94.2a4.27,4.27,0,0,1,2-.52,4.59,4.59,0,0,1,2.08.47,3.84,3.84,0,0,1,1.58,1.49c.39.65.69,1.37,1.15,2a2.51,2.51,0,0,0,2,1.1,3.73,3.73,0,0,0,2.08-.7,8,8,0,0,0,1.55-1.39,6.79,6.79,0,0,1,2.91-2.26,3.78,3.78,0,0,1,3.07.59,5.18,5.18,0,0,1,1.75,2,8.13,8.13,0,0,1,.7,1.92c.14.55.21,1,.26,1.28s.07.45.08.45,0,0,0-.12,0-.19,0-.34-.09-.74-.2-1.29a8.34,8.34,0,0,0-.67-2,5.37,5.37,0,0,0-1.79-2.1,4.05,4.05,0,0,0-3.24-.65,6.92,6.92,0,0,0-3,2.31,7.76,7.76,0,0,1-1.51,1.35,3.45,3.45,0,0,1-1.93.64,2.18,2.18,0,0,1-1.75-1c-.44-.59-.73-1.3-1.14-2a4.16,4.16,0,0,0-1.7-1.6,4.92,4.92,0,0,0-2.21-.5,4.22,4.22,0,0,0-3.62,2,36.55,36.55,0,0,1-1.92,3.26,5.16,5.16,0,0,1-2.69,1.72,5,5,0,0,1-2.65,0,5.46,5.46,0,0,1-1.81-.9A6.56,6.56,0,0,1,366.06,98.27Z" style="fill: rgb(69, 90, 100); transform-origin: 382.637px 97.1026px;" id="elfw292lknrur" class="animable"></path><path d="M360.58,98.6a2.13,2.13,0,0,0-.1.59,4.82,4.82,0,0,0,.22,1.61,5.61,5.61,0,0,0,1.23,2.09,6.48,6.48,0,0,0,2.46,1.64,9.78,9.78,0,0,0,5.3.38,14,14,0,0,0,1.57-.38,1.87,1.87,0,0,0,.55-.21s-.82.19-2.16.39a10.3,10.3,0,0,1-5.16-.45,6.56,6.56,0,0,1-2.37-1.55,5.92,5.92,0,0,1-1.22-2A6.64,6.64,0,0,1,360.58,98.6Z" style="fill: rgb(69, 90, 100); transform-origin: 366.144px 101.856px;" id="elr2ig3cfduor" class="animable"></path><path d="M390.43,430.81l5.83,20.2s-18.57,12.71-17.86,16.55l39.57-9.9-7.8-31.84Z" style="fill: rgb(12, 37, 80); transform-origin: 398.175px 446.69px;" id="elhalgxs2zvr9" class="animable"></path><path d="M408.06,446.23a1.67,1.67,0,0,1,1.58,1.57,1.6,1.6,0,0,1-1.53,1.58,1.77,1.77,0,0,1-1.67-1.67,1.66,1.66,0,0,1,1.78-1.46" style="fill: rgb(224, 224, 224); transform-origin: 408.04px 447.805px;" id="elddlx2ag3lc" class="animable"></path><g id="elyapi8ukcfln"><g style="opacity: 0.6; transform-origin: 398.164px 461.02px;" class="animable"><path d="M418,457.66l-.91-3.18-37.6,10.68s-1.57,1.21-1.06,2.4Z" style="fill: rgb(255, 255, 255); transform-origin: 398.164px 461.02px;" id="el8qnzfptfkj" class="animable"></path></g></g><path d="M395.57,451c.05.19,1,0,2.14.42s1.82,1.07,2,.95-.41-1.17-1.76-1.61S395.48,450.8,395.57,451Z" style="fill: rgb(38, 50, 56); transform-origin: 397.653px 451.482px;" id="elbphcobumeqw" class="animable"></path><path d="M391.85,453.72c0,.2.92.32,1.78,1s1.26,1.47,1.45,1.42,0-1.18-1-2S391.8,453.54,391.85,453.72Z" style="fill: rgb(38, 50, 56); transform-origin: 393.497px 454.847px;" id="elycki90e6j8k" class="animable"></path><path d="M390.73,459.28c.19,0,.21-1-.55-2s-1.77-1.13-1.81-.95.66.61,1.27,1.39S390.53,459.31,390.73,459.28Z" style="fill: rgb(38, 50, 56); transform-origin: 389.605px 457.771px;" id="el6s8uj8o2lei" class="animable"></path><path d="M394.75,446.22c.12.15.94-.33,2.05-.53s2.05-.07,2.11-.26-.93-.68-2.24-.42S394.62,446.09,394.75,446.22Z" style="fill: rgb(38, 50, 56); transform-origin: 396.824px 445.592px;" id="ela6ut9c3wwkc" class="animable"></path><path d="M404.3,435.57l.92,21s-21,8-21.25,11.88l40.78-.31-.08-32.79Z" style="fill: rgb(12, 37, 80); transform-origin: 404.36px 451.9px;" id="el3cchbaqfsci" class="animable"></path><path d="M417.81,454.7a1.67,1.67,0,0,1,1.17,1.9,1.6,1.6,0,0,1-1.86,1.17,1.77,1.77,0,0,1-1.23-2,1.67,1.67,0,0,1,2.08-1" style="fill: rgb(224, 224, 224); transform-origin: 417.435px 456.244px;" id="elu5z4s7qsoy" class="animable"></path><g id="elmv4fcawou8a"><g style="opacity: 0.6; transform-origin: 404.351px 466.64px;" class="animable"><path d="M424.75,468.14l-.13-3.31-39.06,1.54s-1.81.81-1.59,2.08Z" style="fill: rgb(255, 255, 255); transform-origin: 404.351px 466.64px;" id="elfpgyhrm5aap" class="animable"></path></g></g><path d="M404.55,456.37c0,.2,1,.28,2,.91s1.52,1.47,1.7,1.39-.12-1.23-1.33-2S404.51,456.19,404.55,456.37Z" style="fill: rgb(38, 50, 56); transform-origin: 406.424px 457.42px;" id="el5egiq5xbagi" class="animable"></path><path d="M400.29,458.17c0,.19.82.53,1.5,1.36s.89,1.73,1.09,1.72.31-1.14-.56-2.16S400.29,458,400.29,458.17Z" style="fill: rgb(38, 50, 56); transform-origin: 401.655px 459.674px;" id="el4ppxcfdcpv6" class="animable"></path><path d="M397.9,463.31c.18,0,.45-1-.07-2s-1.45-1.52-1.54-1.35.5.74.91,1.64S397.7,463.29,397.9,463.31Z" style="fill: rgb(38, 50, 56); transform-origin: 397.207px 461.619px;" id="elgm8ipuqadmb" class="animable"></path><path d="M404.88,451.56c.08.18,1-.1,2.12,0s2,.42,2.11.25-.75-.88-2.08-.94S404.78,451.4,404.88,451.56Z" style="fill: rgb(38, 50, 56); transform-origin: 406.996px 451.362px;" id="el45wwaia4ear" class="animable"></path><path d="M429.53,281.89v16.6l-4.46,64.7s2.78,31.38,4.48,49.1c1.48,15.38-.94,42.18-.94,42.18h-26l-9.29-89.36-5.76-55.73-10-25.36Z" style="fill: rgb(38, 50, 56); transform-origin: 403.795px 368.18px;" id="eltds6eumy9f" class="animable"></path><polygon points="359.81 284.84 366.14 375.04 392.4 442.62 393.61 446.69 409.12 442.94 397.58 283.02 359.81 284.84" style="fill: rgb(38, 50, 56); transform-origin: 384.465px 364.855px;" id="elycjd179c15q" class="animable"></polygon><path d="M387.67,310.05a1.33,1.33,0,0,0,0,.37c0,.27,0,.64,0,1.1,0,1,.07,2.42.13,4.23.1,3.68.37,9,.74,15.56.78,13.12,2.24,31.23,4.52,51.15s4.72,37.94,6.53,51c.92,6.49,1.67,11.75,2.19,15.41.26,1.8.47,3.21.61,4.19.08.46.13.82.17,1.09a3.16,3.16,0,0,0,.08.37,1.81,1.81,0,0,0,0-.38L402.5,453c-.12-1-.3-2.4-.53-4.2-.48-3.67-1.17-8.94-2-15.43-1.72-13-4.14-31-6.39-51s-3.79-38-4.66-51.13c-.42-6.55-.73-11.86-.89-15.53-.1-1.82-.17-3.24-.22-4.23,0-.46-.06-.83-.07-1.1S387.67,310.05,387.67,310.05Z" style="fill: rgb(69, 90, 100); transform-origin: 395.154px 382.285px;" id="el8xdty4bnytm" class="animable"></path><path d="M409.94,283.53a3.14,3.14,0,0,0,.1,1,15.25,15.25,0,0,0,.74,2.51,16.56,16.56,0,0,0,12.93,10.39,14.14,14.14,0,0,0,2.61.17,3.25,3.25,0,0,0,1-.1c0-.09-1.37,0-3.51-.41a17.73,17.73,0,0,1-7.61-3.5,17.54,17.54,0,0,1-5.06-6.68C410.23,284.87,410,283.51,409.94,283.53Z" style="fill: rgb(69, 90, 100); transform-origin: 418.627px 290.568px;" id="elxvxerw4qah" class="animable"></path><path d="M386,287.47a1.34,1.34,0,1,0,1.34-1.34A1.33,1.33,0,0,0,386,287.47Z" style="fill: rgb(69, 90, 100); transform-origin: 387.34px 287.47px;" id="elnmagas2pdxc" class="animable"></path><path d="M363.2,300.08a8.77,8.77,0,0,0,1.83-1.72,20.69,20.69,0,0,0,4.9-10.95,8.54,8.54,0,0,0,.06-2.5c-.08,0-.13.95-.4,2.45a24.11,24.11,0,0,1-4.82,10.78A24.18,24.18,0,0,0,363.2,300.08Z" style="fill: rgb(69, 90, 100); transform-origin: 366.627px 292.495px;" id="elcbtm9ti0rk6" class="animable"></path><path d="M376.85,161.81a21.86,21.86,0,0,1-1.45,3.58c-.87,2-2.07,3.32-2.19,3.21s.86-1.49,1.72-3.43S376.71,161.72,376.85,161.81Z" style="fill: rgb(38, 50, 56); transform-origin: 375.025px 165.206px;" id="elj0pc0pzila" class="animable"></path><path d="M381,160.57l21.58-18.18,4.55,7s18.82,13.79,22.39,17.69l-4.71,62.63s5,32.94,5.36,35.53,3.3,25.33,3.3,25.33c.39,4.31-3.16,9.53-3.88,9.53,0,0-3.64-4.35-7.54-4s-30.34,7.47-30.34,7.47l-32.12-7.14L363,233.1l1.14-42.35,2.8-16.2,6.35-6.33,3.77-9.89s1.19,12.62,1.36,12.13S381,160.57,381,160.57Z" style="fill: rgb(12, 37, 80); transform-origin: 396.545px 222.98px;" id="eltecmr983o6" class="animable"></path><path d="M406.52,150.48a7.34,7.34,0,0,1-.86,1.18c-.59.73-1.47,1.77-2.59,3-2.23,2.5-5.5,5.78-9,9.46-1.74,1.82-3.38,3.58-4.8,5.24l-.17.19-.18-.17c-2.39-2.38-4.11-4.66-5.43-6.16l-1.55-1.76a4,4,0,0,1-.54-.64,2.91,2.91,0,0,1,.65.53c.4.37,1,.94,1.65,1.67,1.39,1.46,3.17,3.7,5.55,6l-.35,0c1.41-1.68,3.05-3.47,4.8-5.29,3.54-3.69,6.84-6.92,9.14-9.35,1.15-1.21,2.07-2.21,2.7-2.89A7.74,7.74,0,0,1,406.52,150.48Z" style="fill: rgb(38, 50, 56); transform-origin: 393.96px 160.015px;" id="eljfnl1zwcpea" class="animable"></path><path d="M370.05,264.39a1,1,0,0,1,0-.25c0-.19,0-.43,0-.72,0-.67.09-1.59.16-2.75.16-2.43.38-5.88.66-10.11.59-8.54,1.45-20.34,2.49-33.36s2.05-24.8,2.9-33.32c.42-4.26.8-7.7,1.09-10.08.16-1.15.29-2.07.38-2.73l.11-.71a1.17,1.17,0,0,1,0-.24.78.78,0,0,1,0,.25l-.06.71c-.07.67-.16,1.59-.28,2.74-.22,2.43-.54,5.87-.92,10.09-.75,8.53-1.72,20.31-2.75,33.34s-2,24.76-2.64,33.33c-.35,4.24-.63,7.68-.83,10.11-.11,1.16-.19,2.07-.25,2.74,0,.29-.06.52-.08.72A.92.92,0,0,1,370.05,264.39Z" style="fill: rgb(38, 50, 56); transform-origin: 373.94px 217.255px;" id="elwpo9z7ewcsc" class="animable"></path><g id="elly6oacu99h"><g style="opacity: 0.3; transform-origin: 394.711px 245.949px;" class="animable"><path d="M362.62,239c2.44,1.22,5.24,1.64,7.64,2.94a27.45,27.45,0,0,1,4.65,3.54c10.24,8.82,23.12,15.14,36.63,15.38,4.64.08,9.6-.69,13-3.79,1.9-1.7,3.25-4.35,2.52-6.8-.89-3-4.27-4.3-7.24-5.22l-27.68-8.65a126.74,126.74,0,0,0-17.72-4.6,62.87,62.87,0,0,0-12.26-.72" id="elyat63urkvuc" class="animable" style="transform-origin: 394.711px 245.949px;"></path></g></g><path d="M393.32,277.58c-.07.12-6.75-3.48-14.92-8.05s-14.73-8.38-14.66-8.51,6.75,3.48,14.92,8.05S393.39,277.45,393.32,277.58Z" style="fill: rgb(38, 50, 56); transform-origin: 378.53px 269.3px;" id="elmldeo8gthp" class="animable"></path><path d="M372.16,299.24a6,6,0,0,1,0-1.31l.18-3.54c.14-3,.16-7.12.1-11.69s-.07-8.72-.06-11.71c0-1.42,0-2.61,0-3.55a6.58,6.58,0,0,1,.09-1.31,5.79,5.79,0,0,1,.12,1.3c0,.94.07,2.13.12,3.55.08,3,.16,7.14.22,11.71s0,8.73-.26,11.73c-.11,1.49-.24,2.7-.35,3.53A6.79,6.79,0,0,1,372.16,299.24Z" style="fill: rgb(38, 50, 56); transform-origin: 372.538px 282.685px;" id="elo31fdkf4sar" class="animable"></path><g id="elm1m5kb40c8c"><g style="opacity: 0.3; transform-origin: 406.465px 213.27px;" class="animable"><path d="M403.11,227.22c2.33-9,2.11-19.25,1.86-28.44,1.65,6.32,3.49,16,4.85,22.61l-2.62,6.37Z" id="elinwf7t5c9es" class="animable" style="transform-origin: 406.465px 213.27px;"></path></g></g><g id="elnocmcst7kwp"><g style="opacity: 0.3; transform-origin: 391.36px 163.03px;" class="animable"><path d="M378.73,170.13c.07-.18.15-.36.23-.54a26.22,26.22,0,0,1,2.29-4.19,74.78,74.78,0,0,1,7,7.43c3.23-3.37,6.46-6.74,9.37-10.38a78.71,78.71,0,0,0,6.37-9.22l-15,16L381,160.57Z" id="elipczcgepj1b" class="animable" style="transform-origin: 391.36px 163.03px;"></path></g></g><polygon points="308.51 251.62 361.9 252.81 362.86 235 298.55 240.25 308.51 251.62" style="fill: rgb(255, 190, 157); transform-origin: 330.705px 243.905px;" id="elw3bwdg43r" class="animable"></polygon><path d="M268.1,195.35c0,.07-.59,1.31-.59,1.31,4.66,8.89,21.58,41.07,21.58,41.07l20.8,10.08,49.67-2v-2.69L334,233l-31.94.79-17.15-34a3.15,3.15,0,0,0-2.21-1.67Z" style="fill: rgb(69, 90, 100); transform-origin: 313.535px 221.58px;" id="el8h7s0yjq7fc" class="animable"></path><path d="M309.89,247.81a10.75,10.75,0,0,1-1.33-2c-.76-1.28-1.77-3.06-2.86-5s-2.06-3.79-2.73-5.11a11.92,11.92,0,0,1-1-2.19,10.72,10.72,0,0,1,1.32,2c.76,1.28,1.78,3.06,2.87,5s2.06,3.8,2.73,5.12A11.22,11.22,0,0,1,309.89,247.81Z" style="fill: rgb(38, 50, 56); transform-origin: 305.93px 240.66px;" id="el9zk57sy9qv" class="animable"></path><polygon points="314.52 243.42 335.77 242.72 319.73 234.36 302.56 234.74 314.52 243.42" style="fill: rgb(38, 50, 56); transform-origin: 319.165px 238.89px;" id="el6l2elki344a" class="animable"></polygon><path d="M359.56,243.16a1.81,1.81,0,0,1-.52.06l-1.49.05-5.47.15c-4.61.13-11,.36-18,.63s-13.43.44-18.05.47c-2.31,0-4.17,0-5.47,0l-1.48,0a1.65,1.65,0,0,1-.52-.05,2.15,2.15,0,0,1,.52,0l1.48-.06,5.47-.15c4.61-.12,11-.36,18-.62s13.42-.45,18-.48c2.31,0,4.18,0,5.47,0l1.49,0A2.15,2.15,0,0,1,359.56,243.16Z" style="fill: rgb(38, 50, 56); transform-origin: 334.06px 243.832px;" id="el5qbg8atg3u7" class="animable"></path><path d="M306.84,246.34a4,4,0,0,1-.36-.6l-.94-1.75c-.83-1.58-2-3.78-3.38-6.48l-11-21.48L283,199.82l.15.12-11.35-2.31-3.16-.68a6.85,6.85,0,0,1-1.11-.29,7.19,7.19,0,0,1,1.14.16l3.18.56,11.39,2.12.1,0,.05.1c2.39,4.67,5.22,10.22,8.26,16.18l10.85,21.54,3.24,6.56.86,1.8A2.77,2.77,0,0,1,306.84,246.34Z" style="fill: rgb(38, 50, 56); transform-origin: 287.185px 221.5px;" id="elz7o7siewgpg" class="animable"></path><path d="M294.18,234.46s.88-.88,2.65,1.38,4.71,8.83,4.71,8.83l3.24,1.47s-2.84-3.33-2.84-4.71,2.15-1.37,3.33.59a57.79,57.79,0,0,0,4.62,5.79s-1.08,4-1.38,3.81-5.69-.47-5.69-.47l-1.47-.69s-3.64,0-3.83-1-6.19-5.1-6.19-6V237.8s-2.75-6.68-2.16-7.36S292.22,228.28,294.18,234.46Z" style="fill: rgb(255, 190, 157); transform-origin: 299.488px 240.704px;" id="elqi8on493ekh" class="animable"></path><path d="M294.57,234.36s-.11,0-.26.08a.54.54,0,0,0-.32.56v0c.23.72.5,1.84.8,3.21s.62,3,1.13,4.66a8.38,8.38,0,0,0,1.73,3c.64.84,1.24,1.61,1.79,2.32a13.62,13.62,0,0,1,1.54,2.22,15,15,0,0,1-1.83-2l-1.88-2.25a13.82,13.82,0,0,1-1.06-1.4,7.24,7.24,0,0,1-.79-1.74,41.9,41.9,0,0,1-1.06-4.74c-.23-1.23-.43-2.3-.6-3.23v0h0a.68.68,0,0,1,.53-.68C294.48,234.29,294.57,234.34,294.57,234.36Z" style="fill: rgb(235, 153, 110); transform-origin: 297.37px 242.368px;" id="ellsg22dfd58k" class="animable"></path><path d="M293.69,245.9a34.4,34.4,0,0,1-2.36-8.1,34.4,34.4,0,0,1,2.36,8.1Z" style="fill: rgb(235, 153, 110); transform-origin: 292.51px 241.85px;" id="elnw3i0fex6bl" class="animable"></path><path d="M303.76,240.65s-.15,0-.4.08a1.31,1.31,0,0,0-.86.34c-.25.27-.15.77.12,1.29l.84,1.78.85,1.74c.29.51.61,1,.85,1.34.51.77.73,1.32.66,1.35a7.48,7.48,0,0,1-1-1.14,14.25,14.25,0,0,1-1-1.3c-.29-.54-.61-1.14-.92-1.78s-.54-1.21-.8-1.79a2.88,2.88,0,0,1-.25-.9,1.12,1.12,0,0,1,.29-.84,1.4,1.4,0,0,1,1.14-.3C303.63,240.56,303.76,240.61,303.76,240.65Z" style="fill: rgb(235, 153, 110); transform-origin: 303.84px 244.534px;" id="el1dj773j5lmi" class="animable"></path><path d="M399.84,173.06a3.33,3.33,0,0,1,.51-1,15.86,15.86,0,0,1,1.86-2.35,35.16,35.16,0,0,1,3.23-3,15.52,15.52,0,0,1,4.59-3,13,13,0,0,1,5.44-.55,37.69,37.69,0,0,1,4.38.66c1.24.23,2.24.43,2.92.58a3.78,3.78,0,0,1,1.06.28,5,5,0,0,1-1.1-.09c-.69-.08-1.7-.22-2.94-.41s-2.71-.46-4.35-.55a13.07,13.07,0,0,0-5.23.57,15.54,15.54,0,0,0-4.46,2.84,43.78,43.78,0,0,0-3.28,2.91A40.1,40.1,0,0,0,399.84,173.06Z" style="fill: rgb(38, 50, 56); transform-origin: 411.835px 168.07px;" id="eliqfj5pa0dos" class="animable"></path><path d="M365.78,222.53l.74,13.49s20,9.35,33.09,12.72,28.5,2.85,28.5,2.85l-5.5-21.92Z" style="fill: rgb(255, 190, 157); transform-origin: 396.945px 237.074px;" id="elgpadixdz3o6" class="animable"></path><path d="M327.09,225.29a2.87,2.87,0,0,1,1.46-2.76c1.74-1.07,5.38-3.44,5.38-3.44l11-1,20.81,4.44.74,13.49s-10.6.59-13.06.5-9.31-2.29-9.31-2.29-11.49,1.46-12,.83-1.28-1.37-.55-1.83,9.58-2.74,9.58-2.74l-5.93-.45s-8.67,1.82-9.3,1.55-1.46-1.37-.92-2.19l.55-.82a1.84,1.84,0,0,1,.91-2.28l.82-.28Z" style="fill: rgb(255, 190, 157); transform-origin: 345.648px 227.31px;" id="elztgb1wmgvye" class="animable"></path><path d="M342.83,225.13a7.22,7.22,0,0,1-2.66.44c-1.65.13-4-.14-6.35.55a32.73,32.73,0,0,0-3.25,1.38,26,26,0,0,1-2.75,1,8.88,8.88,0,0,1-2.64.53c0-.07,1-.33,2.52-.88.78-.28,1.69-.64,2.67-1.09a27.71,27.71,0,0,1,3.29-1.43,12.67,12.67,0,0,1,3.59-.47c1.11,0,2.09,0,2.91,0C341.81,225.23,342.81,225.05,342.83,225.13Z" style="fill: rgb(235, 153, 110); transform-origin: 334.005px 227.07px;" id="elu1i7ff4nxfm" class="animable"></path><path d="M341.87,222a5.89,5.89,0,0,1-2.38.3,12.69,12.69,0,0,0-5.56.73c-2.06.86-3.92,1.69-5.29,2.24a10.4,10.4,0,0,1-2.25.79,11.18,11.18,0,0,1,2.1-1.13c1.33-.63,3.16-1.52,5.25-2.39a9,9,0,0,1,3.16-.7c1,0,1.87.06,2.6.09C341,222.07,341.85,222,341.87,222Z" style="fill: rgb(235, 153, 110); transform-origin: 334.13px 223.95px;" id="eletfx9dobof8" class="animable"></path><path d="M429.49,167.06s5.55,8.84,6.42,13.16,3,49.8,2.15,50.66a23.65,23.65,0,0,1-2.37,1.94s5,1.08,3.45,3.67a46.06,46.06,0,0,1-3,4.52s-.74,8.41-1.66,8.63a67.43,67.43,0,0,0-6.16,3.18s-15.1-8.14-16.47-12.45-4.6-12.94-4.6-12.94l2.59-6-7.76-36.65s-4.17-11.72,3.33-16.52S426.67,162.22,429.49,167.06Z" style="fill: rgb(12, 37, 80); transform-origin: 420.181px 208.404px;" id="el2gi3ux5ue4f" class="animable"></path><path d="M403.53,191.7a2.78,2.78,0,0,1,.16.55c.09.4.22.93.38,1.61.32,1.45.78,3.5,1.35,6.08l4.63,21.4,0,.08,0,.07-2.58,6v-.19c1.48,4.11,3,8.59,4.71,13.14l.27.58.4.53a7.51,7.51,0,0,0,.87,1,12.14,12.14,0,0,0,1,.93c.33.3.67.59,1,.86,1.37,1.13,2.81,2.14,4.24,3.1,2.86,1.92,5.72,3.61,8.46,5.13h-.23c1.31-.74,2.59-1.44,3.85-2.09.64-.33,1.25-.65,1.9-.92l.25-.1c.07,0,.23-.07.23-.08a1,1,0,0,0,.18-.29,7,7,0,0,0,.29-.92,58,58,0,0,0,1.06-7.21v-.06l0,0c.77-1,1.45-2,2-2.91.31-.47.59-.92.86-1.37a4.88,4.88,0,0,0,.32-.65,1.45,1.45,0,0,0,.05-.65c-.18-.88-1-1.37-1.67-1.71a9.47,9.47,0,0,0-1.92-.7l-.18,0,.15-.11c.84-.59,1.44-1.06,1.83-1.39s.58-.49.59-.48,0,.06-.12.15-.22.23-.41.4a23,23,0,0,1-1.79,1.46l0-.15a9.75,9.75,0,0,1,2,.66,6.28,6.28,0,0,1,1.07.67,2.14,2.14,0,0,1,.77,1.2,1.93,1.93,0,0,1,0,.79,6,6,0,0,1-.35.72q-.39.67-.84,1.38c-.6,1-1.27,1.94-2,3l0-.09a57.36,57.36,0,0,1-1,7.28,6.27,6.27,0,0,1-.31,1,1,1,0,0,1-.41.52l-.25.09-.23.09c-.61.27-1.23.59-1.86.92-1.24.66-2.52,1.37-3.83,2.1l-.11.07-.12-.07c-2.76-1.51-5.63-3.19-8.52-5.12a51,51,0,0,1-4.28-3.11c-.35-.28-.7-.57-1-.89s-.68-.6-1-.94a8.53,8.53,0,0,1-.92-1.06c-.14-.19-.28-.37-.42-.57l-.32-.66c-1.69-4.6-3.22-9-4.69-13.15l0-.1,0-.09,2.6-6v.14c-1.82-8.75-3.35-16.16-4.45-21.44-.52-2.59-.93-4.65-1.22-6.11-.13-.68-.23-1.22-.31-1.63A4.73,4.73,0,0,1,403.53,191.7Z" style="fill: rgb(38, 50, 56); transform-origin: 421.535px 222.445px;" id="elyzd9roxrtz" class="animable"></path><path d="M435.93,232.64s-.25.16-.76.32a7.39,7.39,0,0,1-2.25.34,3.9,3.9,0,0,1-1.56-.39,14.11,14.11,0,0,1-1.56-.9c-1.05-.7-2.11-1.55-3.3-2.35-2.35-1.64-4.56-3-6.15-4a16.68,16.68,0,0,1-2.52-1.73,17.58,17.58,0,0,1,2.71,1.41c1.64.94,3.89,2.27,6.26,3.92,1.19.81,2.27,1.68,3.27,2.38a6,6,0,0,0,2.88,1.32,8.21,8.21,0,0,0,2.17-.17A3.21,3.21,0,0,1,435.93,232.64Z" style="fill: rgb(38, 50, 56); transform-origin: 426.88px 228.615px;" id="elefp7rdgs4gj" class="animable"></path><path d="M436.12,241a2.23,2.23,0,0,1-1,.23,5.31,5.31,0,0,1-2.66-.48,43.74,43.74,0,0,1-7.47-4.71,72.57,72.57,0,0,1-6.56-5.9c-.8-.8-1.43-1.45-1.85-1.92a3.56,3.56,0,0,1-.63-.75,26.7,26.7,0,0,1,2.74,2.41c1.65,1.52,3.92,3.64,6.62,5.74a53.71,53.71,0,0,0,7.3,4.79,5.52,5.52,0,0,0,2.5.61A8.9,8.9,0,0,1,436.12,241Z" style="fill: rgb(38, 50, 56); transform-origin: 426.035px 234.358px;" id="elhxpcnkoha9" class="animable"></path><g id="el52ih6cistcw"><g style="opacity: 0.3; transform-origin: 426.894px 229.893px;" class="animable"><path d="M418,224.14a17.91,17.91,0,0,0,3.65,3.88l6.43,5.6c1.23,1.07,2.68,2.21,4.3,2a5.42,5.42,0,0,0,2.24-1.05c.62-.44,1.32-1.08,1.14-1.82a6.29,6.29,0,0,1-5.47-.58,16.42,16.42,0,0,1-2-1.59,49.08,49.08,0,0,0-10.28-6.31" id="eltvqglf0wxb" class="animable" style="transform-origin: 426.894px 229.893px;"></path></g></g><path d="M366.52,236a5.49,5.49,0,0,1-1.26.15l-3.47.22-5.15.25-3,.13a8.64,8.64,0,0,1-1.64-.28l-1.61-.38c-2.24-.56-4.35-1.12-6.26-1.64h.09c-2.86.26-5.28.47-7,.59l-2,.13a3.3,3.3,0,0,1-.72,0,2.31,2.31,0,0,1,.7-.15l2-.26c1.7-.21,4.12-.48,7-.78h.09l6.25,1.6,1.61.39a9.21,9.21,0,0,0,1.52.27l3-.1,5.14-.14,3.47-.05A6.65,6.65,0,0,1,366.52,236Z" style="fill: rgb(235, 153, 110); transform-origin: 350.51px 235.365px;" id="eltxm37e5kd2i" class="animable"></path></g><g id="freepik--Floor--inject-2" class="animable" style="transform-origin: 250px 468.45px;"><path d="M471.68,468.45c0,.15-99.26.26-221.67.26s-221.69-.11-221.69-.26,99.24-.26,221.69-.26S471.68,468.31,471.68,468.45Z" style="fill: rgb(38, 50, 56); transform-origin: 250px 468.45px;" id="eljr4vu55g9k" class="animable"></path></g><defs>     <filter id="active" height="200%">         <feMorphology in="SourceAlpha" result="DILATED" operator="dilate" radius="2"></feMorphology>                <feFlood flood-color="#1E4078" flood-opacity="1" result="PINK"></feFlood>        <feComposite in="PINK" in2="DILATED" operator="in" result="OUTLINE"></feComposite>        <feMerge>            <feMergeNode in="OUTLINE"></feMergeNode>            <feMergeNode in="SourceGraphic"></feMergeNode>        </feMerge>    </filter>    <filter id="hover" height="200%">        <feMorphology in="SourceAlpha" result="DILATED" operator="dilate" radius="2"></feMorphology>                <feFlood flood-color="#0C2550" flood-opacity="0.5" result="PINK"></feFlood>        <feComposite in="PINK" in2="DILATED" operator="in" result="OUTLINE"></feComposite>        <feMerge>            <feMergeNode in="OUTLINE"></feMergeNode>            <feMergeNode in="SourceGraphic"></feMergeNode>        </feMerge>            <feColorMatrix type="matrix" values="0   0   0   0   0                0   1   0   0   0                0   0   0   0   0                0   0   0   1   0 "></feColorMatrix>    </filter></defs></svg>